<svg width="1000pt" height="1000pt" viewBox="0 0 1000 1000" xmlns="http://www.w3.org/2000/svg"><g fill="#0a3146"><path d="M429.75 63.78c44.39-20.38 93.16-33.04 142.27-30.65 13.55.6 27.03 2.39 40.32 5.07-2.52 31.88-10.55 64.16-28.73 90.89 36.21-13.24 73.6-25.1 112.39-26.87 24.07-1.16 48.47 2.18 71.01 10.84 25 9.47 47.32 25.09 66.34 43.72-6.89 11.83-15.43 22.77-25.8 31.75-12.47 10.94-27.38 18.9-43.16 23.91 26.3 22.37 51.05 46.94 70.86 75.34 19.94 28.38 34.26 61 39.57 95.39 3.42 20.21 2.95 40.78 1.74 61.16-4.94-9.02-8.92-18.6-14.81-27.07-6.33-9.15-15.44-16.16-25.61-20.53 19.41 22.65 34.07 49.14 44.13 77.17 12.29 34.03 18.39 70 21.1 105.99 2.21 28.79 2.08 57.69 1.41 86.54-6.83-9.78-13.23-20.02-22.03-28.21-13.66-13.54-32.25-21.69-51.41-23.05 18.24 22 35.86 45.15 46.71 71.81 9.5 22.91 12.79 48.26 9.75 72.86-2.19 19.14-7.83 37.7-14.85 55.58-12.29-14.4-25.19-28.5-40.48-39.78-14.2-10.61-30.26-18.42-46.71-24.86 9.71 14.14 18.65 29.25 22.77 46.06 3.38 13.45 2.94 27.68-.49 41.07-4.1 16.08-11.58 31.06-19.76 45.41-6.18 10.73-12.82 21.18-19.72 31.45-26.01-10.35-53.06-21.14-72.95-41.6-1.76 10.72-6.76 20.58-12.9 29.44-7.29 10.61-15.55 20.82-20.02 33.05-2.64 6.76-3.82 13.96-4.67 21.14-13.06-4.97-25.82-11.18-36.71-20.05-9.54-7.65-17.42-17.3-23.17-28.08-6.76-12.5-11-26.13-15.03-39.69-5.35 28.11-13.67 57.13-33.23 78.88-12.02 13.53-27.83 23.31-44.72 29.57-17.2-5.5-34.23-12.68-48.3-24.22-10.25-8.3-18.35-19.03-24.29-30.76-6.82-13.48-11.66-27.86-16.27-42.21-1.42 10.92-2.89 22.15-8.13 32.02-5.55 10.9-15.04 19.04-24.58 26.37-7.54 5.73-15.28 11.19-23.05 16.59-5.1-14.31-13.23-27.32-22.75-39.09-9.48-11.84-19.58-24.37-21.81-39.88-19.15 17.69-41.87 32.53-67.7 37.95-13.3-12.38-25.57-26.19-34.24-42.26-8.86-16.13-13.38-34.58-12.94-52.98.44-23.35 7.57-45.98 16.7-67.28-17.07 6.59-34.44 13.64-48.59 25.55-15.59 13.33-26.73 30.79-38.93 47.06-1.36-22.44-3.27-44.85-4.33-67.31-1.12-24.87-.93-50.18 5.47-74.4 6.77-26.64 21.9-50.43 40.6-70.3-15.38.99-30.19 6.96-42.25 16.48-8.63 6.5-16.11 14.32-23.56 22.09-6.97-41.67-5.33-84.57 3.64-125.81 9.87-45.48 27.69-89.17 51.86-128.91-12.63 6.42-25.99 11.31-38.42 18.14-5.46 2.93-10.63 6.34-15.9 9.58 5.44-37.46 12.66-75.23 28.8-109.74 14.52-31.61 36.57-59.38 62.56-82.33 6.82-6.24 14.24-11.78 21.3-17.7 9.19-19.49 19.61-38.46 32.07-56.07 24.75-35.45 57.08-65.59 94.3-87.61 15.8-9.57 32.7-17.06 49.38-24.91-17.36 17.76-36.08 34.81-48.65 56.52-2.85 4.91-5.24 10.09-6.93 15.51 28.95-20.39 59.27-39.03 91.53-53.74m-9.99 14.06c-32.43 16.12-62.81 36.05-91.91 57.55.26-6.81.3-13.73 2.41-20.29 4.72-15.52 14.51-28.84 24.77-41.16-40.75 22.8-75.88 55.43-101.76 94.3-11.04 16.24-20.22 33.66-28.56 51.41-28.66 21.79-54.87 47.66-72.99 79.03-19.6 33.13-29.22 70.98-35.32 108.68 16.77-9.29 35.29-15.09 51.45-25.52 7.48-4.91 14.83-10.02 22.29-14.96-6.34 9.08-13.13 17.86-19.19 27.14-20.53 32.03-36.34 67.05-47.37 103.44-13.15 43.67-18.63 89.93-13.42 135.35 11.43-10.82 24.48-20.52 39.7-25.19 13.12-4.23 27.06-4.2 40.69-4.04-6.31 6.33-12.84 12.47-18.72 19.22-12.41 14.01-22.94 29.89-29.64 47.43-6.9 17.74-9.67 36.81-10.25 55.76-.76 24.98 1.52 49.91 3.15 74.82 9.57-12.79 19.77-25.47 32.9-34.79 15.41-11 33.25-17.83 50.85-24.41 4.3-1.71 8.82-2.87 12.9-5.06-1.75 5.07-4.48 9.74-6.56 14.68-8.63 19.3-15.64 39.67-17.38 60.86-1.43 16.89 1.29 34.2 8.46 49.6 7.64 16.57 19.48 30.84 32.63 43.34 13.62-3.71 26.58-9.78 38.11-17.93 12.66-8.6 24.04-19.03 34.61-30.06.44 7.32-.48 14.79 1.5 21.96 2.67 10.88 9.75 19.85 16.54 28.48 8.7 10.8 16.95 22.13 22.65 34.85 5.28-3.72 10.51-7.5 15.61-11.46 9.97-7.65 19.71-16.77 23.66-29.07 3.6-10.86 4.38-22.38 5.1-33.72.52-10.49.91-20.98 1.26-31.47 4.23 11.94 8.49 23.86 12.49 35.88 5.04 14.75 9.64 29.73 16.43 43.81 5.39 11.18 12.73 21.54 22.27 29.55 12.68 10.77 28.2 17.46 43.83 22.7 14.27-5.71 27.63-14.12 38.01-25.54 7.53-8.39 13.89-17.98 18.05-28.47 4.09-8.06 6.6-16.87 9.04-25.56 5.01-18.69 7.51-37.92 10.67-56.97 4.44 14.39 8.7 28.85 13.06 43.28 4.74 15.25 10.57 30.59 20.83 43.06 9.62 11.94 22.79 20.46 36.68 26.63 2.57-13.01 8.8-24.94 16.41-35.67 7.74-10.89 16.43-21.83 19.19-35.22 1.78-7.47.83-15.2 1.48-22.78 7.02 9.59 14.91 18.71 24.44 25.91 15.75 12.1 34.24 19.83 52.51 27.25 8.58-13.06 16.81-26.39 23.76-40.4 2.47-5.42 5.5-10.72 6.83-16.57.71-.84 1.02-1.93 1.43-2.92 4.28-12.37 6.39-25.72 4.43-38.75-2.03-14.03-8.25-27.06-15.57-39.05-7.14-11.76-15.67-22.58-23.92-33.56 20.12 7.18 40.46 14.28 58.99 25.1 18.61 10.48 34.51 25.08 48.7 40.91 7.43-21.52 11.85-44.39 10.22-67.21-1.94-28.53-13.78-55.73-30.45-78.66-3.2-5.6-7.31-10.61-11.15-15.77-7.98-10.18-16.07-20.31-24.83-29.82l-.64-1.36c13.39-.15 27.01.25 39.86 4.44 17.29 5.22 32.35 16.33 43.82 30.13.22-7.61-.04-15.22-.05-22.83-.56-31.53-3.04-63.12-9.29-94.07-5.73-28.45-14.73-56.42-28.48-82.06-12.31-23.36-29.2-44.12-48.81-61.72 6.47.95 12.77 2.84 19.12 4.41 16.55 4.46 32.08 13.97 41.81 28.32-.28-14.05-2.01-28.07-5.07-41.78-6.93-30.91-21.42-59.77-40.28-85.1-21.1-28.42-46.98-52.95-74.37-75.22-.91-.81-1.8-1.61-2.69-2.41 13.14-3.09 26.2-7.15 37.94-13.96 15.49-8.69 28.46-21.49 38.04-36.4-1.33-1.18-2.64-2.35-3.97-3.51-20.24-17.9-44.19-32.03-70.46-38.86-26.51-7.07-54.51-6.68-81.39-1.96-37.79 6.57-73.71 20.49-109.4 34.1 1.6-1.89 3.25-3.74 4.75-5.7 10.38-11.02 19.24-23.63 25.52-37.46 8.69-18.8 13.35-39.23 15.58-59.76-3.81-.67-7.63-1.27-11.46-1.75-10.9-1.43-21.89-2.1-32.88-2.06-48.6.2-96.04 15.05-139.2 36.64Z"/><path d="M299.19 273.52c6.21-.89 12.95-1.27 18.76 1.52 4.29 1.69 4.41 8.87 0 10.54-5.08 1.9-10.66 1.16-15.96 1.89-14 1.57-26.33 9.66-36.17 19.35-6.68 6.46-12.26 13.93-17.53 21.55-.87-11.21 2.54-22.64 9.6-31.41 10.15-12.66 25.43-20.7 41.3-23.44ZM681.04 275.12c7.18-3.43 15.56-2.38 23.09-.78 15.12 3.64 29.58 11.97 38.71 24.79 6.06 8.42 8.76 18.97 8.02 29.29-8.16-12.01-17.6-23.49-29.75-31.65-8.27-5.62-17.99-9.34-28.06-9.61-4.07-.4-8.4.01-12.19-1.75-4.08-1.85-3.86-8.56.18-10.29ZM326.15 328.55c9.5-1.36 19.29-2.19 28.74-.08 14.59 3.17 28.1 10.59 39.07 20.66 7.85 7.13 15.78 14.59 20.82 24.07 9.9 16.82 15.79 36.17 15.74 55.75-.98 18.4-3.36 37.5-12.91 53.64-6.73 11.55-17.69 20.37-30.19 24.98-9.41 3.55-19.45 5.23-29.46 5.71-17.82.28-34.91-8.55-46.81-21.5-21.03-22.44-26.48-57.72-13.92-85.66 6.11-13.57 16.84-24.94 30.05-31.81 12.93-6.67 27.02-11.8 41.7-12.33 4.43-.22 8.85.43 13.09 1.72-10.97-10.71-26.76-16-41.97-13.91-21.2.14-39.88 13.48-52.91 29.28-5.49 6.8-10.01 14.58-12.01 23.16-4.93 19.52-4.51 39.93-2.85 59.85-3.55-3.19-6.26-7.21-8.06-11.61-3.87-9.3-5.28-19.41-5.98-29.39-.83-14.47-.42-29.38 4.78-43.08 6.76-15.58 17.67-29.91 32.74-38.21 9.57-5.01 19.56-9.63 30.34-11.24m-31.54 89.32c-5.71 21.77-1.92 46.04 10.99 64.59 10.04 14.68 25.73 25.95 43.49 28.74 6.98 1.22 14.1.43 21.04-.62 10.65-1.71 21.21-5.14 30.11-11.37 10.71-7.31 18.14-18.62 22.28-30.78 4.5-13.3 6.19-27.43 6.46-41.41-3.79-7.52-12.61-13.66-21.2-10.26 2.85 14.85 2.56 31.26-5.51 44.51-9.09 15.16-27.09 23.09-44.3 23.39-11.18-1.39-22.87-5.51-30.08-14.61-7.14-9.03-9.12-20.78-10.58-31.88-1.12-10.9-2.98-21.84-1.82-32.81 1.25-12.82 8.95-23.73 17.97-32.44-18.99 7.91-33.95 24.93-38.85 44.95m66.87-44.19a29.519 29.519 0 0 0-12.75 8.05c-9.47 9.87-10.32 26.51-1.85 37.27 8.32 11.54 25.55 15.09 37.72 7.66 12.49-6.87 18.11-23.55 12.23-36.57-5.39-13.41-21.6-20.99-35.35-16.41ZM622.34 333.29c17.05-7.25 36.58-6.01 53.9-.4 10.89 4.39 22.04 9.18 30.5 17.59 6.16 5.57 11.17 12.31 15.14 19.59 10.4 16.95 10.51 37.8 8.92 57.01-1.5 12.75-3.75 26.93-13.63 36.1 1.71-21.15 2.19-42.93-3.88-63.48-4.57-13.8-14.58-25.15-25.78-34.11-10.7-8.38-23.69-14.67-37.53-14.69-15.38-2.18-31.43 2.97-42.54 13.85 4.11-1.17 8.36-1.94 12.65-1.73 13.44.43 26.44 4.73 38.47 10.52 11.67 5.42 21.98 13.93 28.88 24.85 18.67 29.03 14.1 70.46-9.81 95.2-12.15 12.89-29.57 21.52-47.52 20.69-14.81-.91-29.98-4.43-42.23-13.16-9.9-6.95-17.08-17.26-21.33-28.5-4.22-11.02-6.12-22.78-7.04-34.49-2.07-19.88 2.77-40.09 11.87-57.75 3.25-6.16 6.59-12.39 11.37-17.54 11.13-12.23 23.95-23.56 39.59-29.55m-10.92 41.29c-6.54 1.85-12.34 6.11-16.12 11.74-7.63 10.88-6.26 26.88 3.11 36.31 9.11 9.93 25.34 11.94 36.59 4.48 11.8-7.23 16.88-23.38 11.13-36.02-5.34-13.16-21.11-20.71-34.71-16.51m44.5-.67c9.11 8.71 16.81 19.68 18.11 32.54 1.04 10.63-.61 21.22-1.72 31.77-1.33 10.42-3 21.26-8.8 30.26-4.62 7.26-12.2 12.16-20.31 14.69-5.52 1.63-11.3 3.34-17.09 2.26-15.27-1.77-30.58-9.37-38.72-22.82-8.28-13.34-8.51-29.92-5.69-44.92-3.08-.68-6.32-1.2-9.38-.18-5.18 1.64-9.17 5.88-11.79 10.5.47 19.46 3.15 39.87 13.73 56.68 8.32 13.35 22.62 22.06 37.77 25.49 10.47 2.33 21.49 3.95 32.07 1.39 19.33-4.41 35.53-18.54 44.55-35.94 9.03-17.15 11.09-37.67 6.31-56.39-4.84-20.21-19.93-37.32-39.04-45.33ZM466.12 511.2c4.09-2.28 9.74.49 11.12 4.72-.06 4.7-3.64 8.45-7.24 11.03-7.64 5.01-17.16 6.42-26.12 5.76-1.69.04-2.64-1.4-3.51-2.59 1.78-6.27 9.49-5.38 14.4-7.38 5.82-1.62 5.83-9.48 11.35-11.54ZM522.39 510.62c3.01-.85 6.17.57 8.29 2.69 2.4 2.68 3.32 6.61 6.5 8.62 4.61 2.55 10.61 1.73 14.72 5.27 2.02 1.79 1 5.58-1.91 5.49-9.38.7-19.47-.81-27.21-6.47-3.32-2.64-6.82-6.55-6.08-11.09 1.31-2.07 3.3-3.83 5.69-4.51ZM625.36 581.32c2.4-.3 4.02-3.65 6.6-2.68-1.75 3.18-3.58 7.03-7.5 7.9-5.6 1.48-11.22 3.42-17.09 3.14 1.05-2.3 1.1-4.82 1.2-7.29 5.63.36 11.26.11 16.79-1.07Z"/></g><g fill="#fcfaed"><path d="M419.76 77.84c43.16-21.59 90.6-36.44 139.2-36.64 10.99-.04 21.98.63 32.88 2.06.85 17.74-7.21 34.36-16.78 48.78-16.26 23.94-37.59 43.96-60.16 61.86-9 7.24-18.62 13.64-28 20.37 20.06-3.4 39.76-9.81 57.49-19.85 6.38-3.4 11.87-8.13 17.81-12.19-1.5 1.96-3.15 3.81-4.75 5.7 35.69-13.61 71.61-27.53 109.4-34.1 26.88-4.72 54.88-5.11 81.39 1.96 26.27 6.83 50.22 20.96 70.46 38.86-25.7 19.43-57.43 29.58-89.2 33.06-20.26 2.27-40.76 1.27-60.88-1.8 17.34 10.31 36.78 16.5 56.31 21.14 8.08 1.61 16.14 4 24.45 3.88 27.39 22.27 53.27 46.8 74.37 75.22 18.86 25.33 33.35 54.19 40.28 85.1-8.99-4.53-18.98-7.25-29.09-6.93-16.88.38-32.86 6.56-48.47 12.4 7.32.58 14.61 1.58 21.7 3.58 19.61 17.6 36.5 38.36 48.81 61.72 13.75 25.64 22.75 53.61 28.48 82.06 6.25 30.95 8.73 62.54 9.29 94.07-8.82-12.82-21.36-22.94-35.55-29.25-24.92-11.18-53.46-10.39-79.62-4.43 11.34 6.87 22.36 14.34 32.18 23.3 8.76 9.51 16.85 19.64 24.83 29.82 3.84 5.16 7.95 10.17 11.15 15.77 6.76 14.43 12.68 29.55 14.07 45.57 1.45 15.02-.71 31.37-10.33 43.53-7.68 9.61-19.9 15.77-32.21 15.86-18.53-10.82-38.87-17.92-58.99-25.1 8.25 10.98 16.78 21.8 23.92 33.56 7.32 11.99 13.54 25.02 15.57 39.05 1.96 13.03-.15 26.38-4.43 38.75-.41.99-.72 2.08-1.43 2.92-7.16 7.67-14.11 15.81-23.3 21.15-10.06 6.34-22.8 8.52-34.21 4.85-15.35-4.78-27.59-15.98-38.34-27.5-7.59-8.04-13.97-17.09-20.91-25.65 2.66 10.44 6.54 20.53 9.22 30.96-.65 7.58.3 15.31-1.48 22.78-2.76 13.39-11.45 24.33-19.19 35.22-10.03 1.9-20.68 1.27-30.01-3.11-13.6-6.15-23.83-17.76-31.74-30.12-13.46-21.28-21.21-45.5-27.85-69.61 1.02 8.5 2.31 16.97 2.62 25.54-3.16 19.05-5.66 38.28-10.67 56.97-2.44 8.69-4.95 17.5-9.04 25.56-9.42 8.61-20.04 16.32-32.35 20.17-13.55 4.51-28.66 3.98-41.83-1.53-16.31-6.66-29.35-19.36-39.64-33.37-19.91-27.74-31.52-60.49-39.95-93.32.54 10.06 1.79 20.08 2.69 30.12-.35 10.49-.74 20.98-1.26 31.47-.72 11.34-1.5 22.86-5.1 33.72-10.29 5.5-22.42 8.67-33.95 5.54-15.99-4.02-27.64-17.93-32.94-33.03-4.81-12.78-4.91-26.65-3.61-40.06-2.77 7.75-6.31 15.19-9.46 22.79-10.57 11.03-21.95 21.46-34.61 30.06-12.36 2.03-25.68.2-36.2-6.88-12.84-8.46-20.71-22.6-25.07-37.02-6.62-22.41-6.49-46.59-.96-69.21 4.47-17.84 13.1-35.73 28.66-46.41-7.28 2.86-14.77 5.3-21.69 8.97-4.08 2.19-8.6 3.35-12.9 5.06-17.6 6.58-35.44 13.41-50.85 24.41-13.13 9.32-23.33 22-32.9 34.79-1.63-24.91-3.91-49.84-3.15-74.82.58-18.95 3.35-38.02 10.25-55.76 6.7-17.54 17.23-33.42 29.64-47.43 5.88-6.75 12.41-12.89 18.72-19.22-13.63-.16-27.57-.19-40.69 4.04-15.22 4.67-28.27 14.37-39.7 25.19-5.21-45.42.27-91.68 13.42-135.35 11.03-36.39 26.84-71.41 47.37-103.44 6.06-9.28 12.85-18.06 19.19-27.14-7.46 4.94-14.81 10.05-22.29 14.96-16.16 10.43-34.68 16.23-51.45 25.52 6.1-37.7 15.72-75.55 35.32-108.68 18.12-31.37 44.33-57.24 72.99-79.03 8.34-17.75 17.52-35.17 28.56-51.41 25.88-38.87 61.01-71.5 101.76-94.3-10.26 12.32-20.05 25.64-24.77 41.16-2.11 6.56-2.15 13.48-2.41 20.29 29.1-21.5 59.48-41.43 91.91-57.55M299.19 273.52c-15.87 2.74-31.15 10.78-41.3 23.44-7.06 8.77-10.47 20.2-9.6 31.41 5.27-7.62 10.85-15.09 17.53-21.55 9.84-9.69 22.17-17.78 36.17-19.35 5.3-.73 10.88.01 15.96-1.89 4.41-1.67 4.29-8.85 0-10.54-5.81-2.79-12.55-2.41-18.76-1.52m381.85 1.6c-4.04 1.73-4.26 8.44-.18 10.29 3.79 1.76 8.12 1.35 12.19 1.75 10.07.27 19.79 3.99 28.06 9.61 12.15 8.16 21.59 19.64 29.75 31.65.74-10.32-1.96-20.87-8.02-29.29-9.13-12.82-23.59-21.15-38.71-24.79-7.53-1.6-15.91-2.65-23.09.78m-354.89 53.43c-10.78 1.61-20.77 6.23-30.34 11.24-15.07 8.3-25.98 22.63-32.74 38.21-5.2 13.7-5.61 28.61-4.78 43.08.7 9.98 2.11 20.09 5.98 29.39 1.8 4.4 4.51 8.42 8.06 11.61-1.66-19.92-2.08-40.33 2.85-59.85 2-8.58 6.52-16.36 12.01-23.16 13.03-15.8 31.71-29.14 52.91-29.28 15.21-2.09 31 3.2 41.97 13.91-4.24-1.29-8.66-1.94-13.09-1.72-14.68.53-28.77 5.66-41.7 12.33-13.21 6.87-23.94 18.24-30.05 31.81-12.56 27.94-7.11 63.22 13.92 85.66 11.9 12.95 28.99 21.78 46.81 21.5 10.01-.48 20.05-2.16 29.46-5.71 12.5-4.61 23.46-13.43 30.19-24.98 9.55-16.14 11.93-35.24 12.91-53.64.05-19.58-5.84-38.93-15.74-55.75-5.04-9.48-12.97-16.94-20.82-24.07-10.97-10.07-24.48-17.49-39.07-20.66-9.45-2.11-19.24-1.28-28.74.08m296.19 4.74c-15.64 5.99-28.46 17.32-39.59 29.55-4.78 5.15-8.12 11.38-11.37 17.54-9.1 17.66-13.94 37.87-11.87 57.75.92 11.71 2.82 23.47 7.04 34.49 4.25 11.24 11.43 21.55 21.33 28.5 12.25 8.73 27.42 12.25 42.23 13.16 17.95.83 35.37-7.8 47.52-20.69 23.91-24.74 28.48-66.17 9.81-95.2-6.9-10.92-17.21-19.43-28.88-24.85-12.03-5.79-25.03-10.09-38.47-10.52-4.29-.21-8.54.56-12.65 1.73 11.11-10.88 27.16-16.03 42.54-13.85 13.84.02 26.83 6.31 37.53 14.69 11.2 8.96 21.21 20.31 25.78 34.11 6.07 20.55 5.59 42.33 3.88 63.48 9.88-9.17 12.13-23.35 13.63-36.1 1.59-19.21 1.48-40.06-8.92-57.01-3.97-7.28-8.98-14.02-15.14-19.59-8.46-8.41-19.61-13.2-30.5-17.59-17.32-5.61-36.85-6.85-53.9.4M478.08 472.57c-12.71 3.61-23.29 11.99-32.88 20.76-12.44 11.53-24.2 23.86-37.72 34.17-15.89 12.3-34.04 21.78-53.39 27.25-7.07 1.47-14.87 4.42-18.18 11.37-3.17 7.33-2.91 16.51 1.77 23.16 4.65 6.64 12.59 9.73 20.13 11.8 5.79 9.36 12.31 18.27 19.41 26.68 17.99 21.15 39.26 39.71 63.41 53.52 15.24 8.58 31.89 15.39 49.44 16.99 13.57 1.31 27.14-1.84 39.75-6.67 16-6.18 30.84-15.07 44.61-25.24 24.29-18.13 45.69-40.38 61.76-66.14 6.8-2.23 14.17-4.41 19.12-9.9 4.79-5.75 4.92-14.08 3.09-21-2.11-7.38-9.29-11.95-16.48-13.37-26.17-5-51.33-16.63-70.96-34.82-12.03-10.75-21.69-23.79-33.39-34.85-8.84-8.43-20.21-14.61-32.56-15.45-8.98-.35-18.21-.9-26.93 1.74Z"/><path d="M361.48 373.68c13.75-4.58 29.96 3 35.35 16.41 5.88 13.02.26 29.7-12.23 36.57-12.17 7.43-29.4 3.88-37.72-7.66-8.47-10.76-7.62-27.4 1.85-37.27 3.46-3.73 7.9-6.53 12.75-8.05ZM611.42 374.58c13.6-4.2 29.37 3.35 34.71 16.51 5.75 12.64.67 28.79-11.13 36.02-11.25 7.46-27.48 5.45-36.59-4.48-9.37-9.43-10.74-25.43-3.11-36.31 3.78-5.63 9.58-9.89 16.12-11.74Z"/></g><g fill="#8ecae6"><path d="M591.84 43.26c3.83.48 7.65 1.08 11.46 1.75-2.23 20.53-6.89 40.96-15.58 59.76-6.28 13.83-15.14 26.44-25.52 37.46-5.94 4.06-11.43 8.79-17.81 12.19-17.73 10.04-37.43 16.45-57.49 19.85 9.38-6.73 19-13.13 28-20.37 22.57-17.9 43.9-37.92 60.16-61.86 9.57-14.42 17.63-31.04 16.78-48.78ZM818.7 154.65c1.33 1.16 2.64 2.33 3.97 3.51-9.58 14.91-22.55 27.71-38.04 36.4-11.74 6.81-24.8 10.87-37.94 13.96.89.8 1.78 1.6 2.69 2.41-8.31.12-16.37-2.27-24.45-3.88-19.53-4.64-38.97-10.83-56.31-21.14 20.12 3.07 40.62 4.07 60.88 1.8 31.77-3.48 63.5-13.63 89.2-33.06ZM786.47 376.72c15.61-5.84 31.59-12.02 48.47-12.4 10.11-.32 20.1 2.4 29.09 6.93 3.06 13.71 4.79 27.73 5.07 41.78-9.73-14.35-25.26-23.86-41.81-28.32-6.35-1.57-12.65-3.46-19.12-4.41-7.09-2-14.38-3-21.7-3.58ZM294.61 417.87c4.9-20.02 19.86-37.04 38.85-44.95-9.02 8.71-16.72 19.62-17.97 32.44-8.39 1.17-14.98 6.89-20.88 12.51ZM655.92 373.91c19.11 8.01 34.2 25.12 39.04 45.33-5.72-5.92-12.53-11.57-20.93-12.79-1.3-12.86-9-23.83-18.11-32.54ZM779.58 584.47c26.16-5.96 54.7-6.75 79.62 4.43 14.19 6.31 26.73 16.43 35.55 29.25.01 7.61.27 15.22.05 22.83-11.47-13.8-26.53-24.91-43.82-30.13-12.85-4.19-26.47-4.59-39.86-4.44l.64 1.36c-9.82-8.96-20.84-16.43-32.18-23.3ZM847.74 653.36c16.67 22.93 28.51 50.13 30.45 78.66 1.63 22.82-2.79 45.69-10.22 67.21-14.19-15.83-30.09-30.43-48.7-40.91 12.31-.09 24.53-6.25 32.21-15.86 9.62-12.16 11.78-28.51 10.33-43.53-1.39-16.02-7.31-31.14-14.07-45.57ZM231.74 736.55c6.92-3.67 14.41-6.11 21.69-8.97-15.56 10.68-24.19 28.57-28.66 46.41-5.53 22.62-5.66 46.8.96 69.21 4.36 14.42 12.23 28.56 25.07 37.02 10.52 7.08 23.84 8.91 36.2 6.88-11.53 8.15-24.49 14.22-38.11 17.93-13.15-12.5-24.99-26.77-32.63-43.34-7.17-15.4-9.89-32.71-8.46-49.6 1.74-21.19 8.75-41.56 17.38-60.86 2.08-4.94 4.81-9.61 6.56-14.68ZM407.93 836.61c-.9-10.04-2.15-20.06-2.69-30.12 8.43 32.83 20.04 65.58 39.95 93.32 10.29 14.01 23.33 26.71 39.64 33.37 13.17 5.51 28.28 6.04 41.83 1.53 12.31-3.85 22.93-11.56 32.35-20.17-4.16 10.49-10.52 20.08-18.05 28.47-10.38 11.42-23.74 19.83-38.01 25.54-15.63-5.24-31.15-11.93-43.83-22.7-9.54-8.01-16.88-18.37-22.27-29.55-6.79-14.08-11.39-29.06-16.43-43.81-4-12.02-8.26-23.94-12.49-35.88ZM576.1 806.47c6.64 24.11 14.39 48.33 27.85 69.61 7.91 12.36 18.14 23.97 31.74 30.12 9.33 4.38 19.98 5.01 30.01 3.11-7.61 10.73-13.84 22.66-16.41 35.67-13.89-6.17-27.06-14.69-36.68-26.63-10.26-12.47-16.09-27.81-20.83-43.06-4.36-14.43-8.62-28.89-13.06-43.28-.31-8.57-1.6-17.04-2.62-25.54ZM677.15 820.35c6.94 8.56 13.32 17.61 20.91 25.65 10.75 11.52 22.99 22.72 38.34 27.5 11.41 3.67 24.15 1.49 34.21-4.85 9.19-5.34 16.14-13.48 23.3-21.15-1.33 5.85-4.36 11.15-6.83 16.57-6.95 14.01-15.18 27.34-23.76 40.4-18.27-7.42-36.76-15.15-52.51-27.25-9.53-7.2-17.42-16.32-24.44-25.91-2.68-10.43-6.56-20.52-9.22-30.96ZM321.61 857.04c3.15-7.6 6.69-15.04 9.46-22.79-1.3 13.41-1.2 27.28 3.61 40.06 5.3 15.1 16.95 29.01 32.94 33.03 11.53 3.13 23.66-.04 33.95-5.54-3.95 12.3-13.69 21.42-23.66 29.07-5.1 3.96-10.33 7.74-15.61 11.46-5.7-12.72-13.95-24.05-22.65-34.85-6.79-8.63-13.87-17.6-16.54-28.48-1.98-7.17-1.06-14.64-1.5-21.96Z"/></g><g fill="#1a9ebb"><path d="M294.61 417.87c5.9-5.62 12.49-11.34 20.88-12.51-1.16 10.97.7 21.91 1.82 32.81 1.46 11.1 3.44 22.85 10.58 31.88 7.21 9.1 18.9 13.22 30.08 14.61 17.21-.3 35.21-8.23 44.3-23.39 8.07-13.25 8.36-29.66 5.51-44.51 8.59-3.4 17.41 2.74 21.2 10.26-.27 13.98-1.96 28.11-6.46 41.41-4.14 12.16-11.57 23.47-22.28 30.78-8.9 6.23-19.46 9.66-30.11 11.37-6.94 1.05-14.06 1.84-21.04.62-17.76-2.79-33.45-14.06-43.49-28.74-12.91-18.55-16.7-42.82-10.99-64.59ZM674.03 406.45c8.4 1.22 15.21 6.87 20.93 12.79 4.78 18.72 2.72 39.24-6.31 56.39-9.02 17.4-25.22 31.53-44.55 35.94-10.58 2.56-21.6.94-32.07-1.39-15.15-3.43-29.45-12.14-37.77-25.49-10.58-16.81-13.26-37.22-13.73-56.68 2.62-4.62 6.61-8.86 11.79-10.5 3.06-1.02 6.3-.5 9.38.18-2.82 15-2.59 31.58 5.69 44.92 8.14 13.45 23.45 21.05 38.72 22.82 5.79 1.08 11.57-.63 17.09-2.26 8.11-2.53 15.69-7.43 20.31-14.69 5.8-9 7.47-19.84 8.8-30.26 1.11-10.55 2.76-21.14 1.72-31.77Z"/></g><path fill="#79141c" d="M478.08 472.57c8.72-2.64 17.95-2.09 26.93-1.74 12.35.84 23.72 7.02 32.56 15.45 11.7 11.06 21.36 24.1 33.39 34.85 19.63 18.19 44.79 29.82 70.96 34.82 7.19 1.42 14.37 5.99 16.48 13.37 1.83 6.92 1.7 15.25-3.09 21-4.95 5.49-12.32 7.67-19.12 9.9-16.07 25.76-37.47 48.01-61.76 66.14-13.77 10.17-28.61 19.06-44.61 25.24-12.61 4.83-26.18 7.98-39.75 6.67-17.55-1.6-34.2-8.41-49.44-16.99-24.15-13.81-45.42-32.37-63.41-53.52-7.1-8.41-13.62-17.32-19.41-26.68-7.54-2.07-15.48-5.16-20.13-11.8-4.68-6.65-4.94-15.83-1.77-23.16 3.31-6.95 11.11-9.9 18.18-11.37 19.35-5.47 37.5-14.95 53.39-27.25 13.52-10.31 25.28-22.64 37.72-34.17 9.59-8.77 20.17-17.15 32.88-20.76m-4.04 4.41c-12.83 5.16-23.06 14.8-32.94 24.17-11.56 11.09-23.01 22.39-36.05 31.76-16.54 12.03-35.35 21.07-55.24 25.94-5.3 1.56-10.54 5.04-12.16 10.59-1.7 6.34-1.34 13.78 3.01 19.03 4.65 5.75 11.97 8.28 18.9 10.06 18.16 29.23 42.8 54.38 71.41 73.47 15.53 10.15 32.51 18.62 50.82 22.24 17.52 3.59 36.18.32 51.92-8 24.29-10.48 45.61-26.78 64.8-44.76 13.72-13.52 25.72-28.71 36.04-44.97 1.49-.07 3.04-.15 4.43-.79 4.53-1.82 9.29-3.47 13.04-6.7 4.63-5.18 4.61-12.86 2.93-19.21-1.99-6.05-8.17-9.36-14.06-10.52-11.31-2.02-22.28-5.65-32.88-10.05-3.5-1.34-6.35-3.88-9.74-5.42-17.05-8.73-31.63-21.56-44.26-35.83-9.61-10.34-18.48-21.98-31.07-28.91-7.24-4.1-15.61-5.55-23.84-5.78 3.38 17.01 3.65 34.42 4.61 51.68.58 19 .99 38.03.66 57.05-.34 13.92-.45 27.94-2.95 41.68 6.92-3.03 12.23-8.57 17.79-13.51 10.45-9.73 22.32-18.34 35.93-22.97 22.77-6.67 46.84-5.69 70.05-9.25 1.28-.55 2.3-1.52 3.38-2.39-.06-1.84-.09-3.69-.08-5.51 5.88 1.58 5.94 8.92 4.83 13.81-1.95 1.66-3.62 3.62-5.6 5.24-6.14 1.63-12.32 3.22-18.58 4.29-4.41 0-9.57.5-12.62 4.08-18.81 21.43-37.79 42.96-60.05 60.92-9.57 7.5-19.78 14.78-31.6 18.23-10.66 3.14-22.07.24-31.56-4.99-14.04-7.65-25.78-18.77-36.94-30.06-11.7-11.98-22.42-24.86-33.79-37.13-3.37-3.33-6.53-7.12-10.86-9.23-7.81-2.92-16.69-1.84-24.24-5.61-5.5-3.69-7.93-10.33-10.01-16.34 3.76 2.94 7.79 5.67 12.48 6.84 6.51 2.15 13.38.69 20.06 1.01 16.36.44 32.86 2.13 48.49 7.22 14.59 4.54 26.09 15.04 38.44 23.55 6.76 4.53 13.32 10.03 21.4 11.94 2.09-9.82 2.55-19.9 2.83-29.91.53-11.99.52-23.99.45-35.99-.47-25.72-1.01-51.49-3.92-77.08-.32-2.58-.93-5.12-1.82-7.55-7.43-.12-14.95.8-21.84 3.66m151.32 104.34c-5.53 1.18-11.16 1.43-16.79 1.07-.1 2.47-.15 4.99-1.2 7.29 5.87.28 11.49-1.66 17.09-3.14 3.92-.87 5.75-4.72 7.5-7.9-2.58-.97-4.2 2.38-6.6 2.68Z"/><path fill="#ec8110" d="M474.04 476.98c6.89-2.86 14.41-3.78 21.84-3.66.89 2.43 1.5 4.97 1.82 7.55 2.91 25.59 3.45 51.36 3.92 77.08.07 12 .08 24-.45 35.99-.28 10.01-.74 20.09-2.83 29.91-8.08-1.91-14.64-7.41-21.4-11.94-12.35-8.51-23.85-19.01-38.44-23.55-15.63-5.09-32.13-6.78-48.49-7.22-6.68-.32-13.55 1.14-20.06-1.01-4.69-1.17-8.72-3.9-12.48-6.84 2.08 6.01 4.51 12.65 10.01 16.34 7.55 3.77 16.43 2.69 24.24 5.61 4.33 2.11 7.49 5.9 10.86 9.23 11.37 12.27 22.09 25.15 33.79 37.13 11.16 11.29 22.9 22.41 36.94 30.06 9.49 5.23 20.9 8.13 31.56 4.99 11.82-3.45 22.03-10.73 31.6-18.23 22.26-17.96 41.24-39.49 60.05-60.92 3.05-3.58 8.21-4.08 12.62-4.08 6.26-1.07 12.44-2.66 18.58-4.29 1.98-1.62 3.65-3.58 5.6-5.24 1.11-4.89 1.05-12.23-4.83-13.81-.01 1.82.02 3.67.08 5.51-1.08.87-2.1 1.84-3.38 2.39-23.21 3.56-47.28 2.58-70.05 9.25-13.61 4.63-25.48 13.24-35.93 22.97-5.56 4.94-10.87 10.48-17.79 13.51 2.5-13.74 2.61-27.76 2.95-41.68.33-19.02-.08-38.05-.66-57.05-.96-17.26-1.23-34.67-4.61-51.68 8.23.23 16.6 1.68 23.84 5.78 12.59 6.93 21.46 18.57 31.07 28.91 12.63 14.27 27.21 27.1 44.26 35.83 3.39 1.54 6.24 4.08 9.74 5.42 10.6 4.4 21.57 8.03 32.88 10.05 5.89 1.16 12.07 4.47 14.06 10.52 1.68 6.35 1.7 14.03-2.93 19.21-3.75 3.23-8.51 4.88-13.04 6.7-1.39.64-2.94.72-4.43.79-10.32 16.26-22.32 31.45-36.04 44.97-19.19 17.98-40.51 34.28-64.8 44.76-15.74 8.32-34.4 11.59-51.92 8-18.31-3.62-35.29-12.09-50.82-22.24-28.61-19.09-53.25-44.24-71.41-73.47-6.93-1.78-14.25-4.31-18.9-10.06-4.35-5.25-4.71-12.69-3.01-19.03 1.62-5.55 6.86-9.03 12.16-10.59 19.89-4.87 38.7-13.91 55.24-25.94 13.04-9.37 24.49-20.67 36.05-31.76 9.88-9.37 20.11-19.01 32.94-24.17m-7.92 34.22c-5.52 2.06-5.53 9.92-11.35 11.54-4.91 2-12.62 1.11-14.4 7.38.87 1.19 1.82 2.63 3.51 2.59 8.96.66 18.48-.75 26.12-5.76 3.6-2.58 7.18-6.33 7.24-11.03-1.38-4.23-7.03-7-11.12-4.72m56.27-.58c-2.39.68-4.38 2.44-5.69 4.51-.74 4.54 2.76 8.45 6.08 11.09 7.74 5.66 17.83 7.17 27.21 6.47 2.91.09 3.93-3.7 1.91-5.49-4.11-3.54-10.11-2.72-14.72-5.27-3.18-2.01-4.1-5.94-6.5-8.62-2.12-2.12-5.28-3.54-8.29-2.69Z"/></svg>