<svg xmlns="http://www.w3.org/2000/svg" width="24" height="24" viewBox="0 0 24 24" fill="none">
    <path d="M9.05615 1.375C9.05615 0.960786 8.72037 0.625 8.30615 0.625C7.89194 0.625 7.55615 0.960786 7.55615 1.375H9.05615ZM7.55615 3.875C7.55615 4.28921 7.89194 4.625 8.30615 4.625C8.72037 4.625 9.05615 4.28921 9.05615 3.875H7.55615ZM16.4438 1.375C16.4438 0.960786 16.1081 0.625 15.6938 0.625C15.2796 0.625 14.9438 0.960786 14.9438 1.375H16.4438ZM14.9438 3.875C14.9438 4.28921 15.2796 4.625 15.6938 4.625C16.1081 4.625 16.4438 4.28921 16.4438 3.875H14.9438ZM2.10193 8.80981C1.68772 8.80981 1.35193 9.1456 1.35193 9.55981C1.35193 9.97403 1.68772 10.3098 2.10193 10.3098V8.80981ZM21.9115 10.3098C22.3257 10.3098 22.6615 9.97403 22.6615 9.55981C22.6615 9.1456 22.3257 8.80981 21.9115 8.80981V10.3098ZM8.29578 15.0037C7.88156 15.0037 7.54578 15.3394 7.54578 15.7537C7.54578 16.1679 7.88156 16.5037 8.29578 16.5037V15.0037ZM15.6615 16.5037C16.0757 16.5037 16.4115 16.1679 16.4115 15.7537C16.4115 15.3394 16.0757 15.0037 15.6615 15.0037V16.5037ZM6 3.375H18V1.875H6V3.375ZM21.25 6.625V18.625H22.75V6.625H21.25ZM18 21.875H6V23.375H18V21.875ZM2.75 18.625V6.625H1.25V18.625H2.75ZM6 21.875C4.20507 21.875 2.75 20.4199 2.75 18.625H1.25C1.25 21.2484 3.37665 23.375 6 23.375V21.875ZM21.25 18.625C21.25 20.4199 19.7949 21.875 18 21.875V23.375C20.6234 23.375 22.75 21.2484 22.75 18.625H21.25ZM18 3.375C19.7949 3.375 21.25 4.83007 21.25 6.625H22.75C22.75 4.00165 20.6234 1.875 18 1.875V3.375ZM6 1.875C3.37665 1.875 1.25 4.00165 1.25 6.625H2.75C2.75 4.83007 4.20507 3.375 6 3.375V1.875ZM7.55615 1.375V3.875H9.05615V1.375H7.55615ZM14.9438 1.375V3.875H16.4438V1.375H14.9438ZM2.10193 10.3098H21.9115V8.80981H2.10193V10.3098ZM8.29578 16.5037H15.6615V15.0037H8.29578V16.5037Z" fill="white"/>
</svg>