<svg width="25" height="24" viewBox="0 0 25 24" fill="none" xmlns="http://www.w3.org/2000/svg">
<g id="BOOKING">
<path id="Vector" d="M8.84088 1.5V3.97059M16.0391 1.5V3.97059M2.78903 9.58828H22.1034M13.6588 13.631H16.0963M11.2213 18.5847H8.78375M9.17528 13.6246C9.17528 13.8455 9.00067 14.0246 8.78528 14.0246M9.17528 13.6246C9.17528 13.4037 9.00067 13.2246 8.78528 13.2246M9.17528 13.6246H8.39528M8.78528 14.0246C8.56989 14.0246 8.39528 13.8455 8.39528 13.6246M8.78528 14.0246V13.2246M8.39528 13.6246C8.39528 13.4037 8.56989 13.2246 8.78528 13.2246M16.0978 18.9904C16.3132 18.9904 16.4878 18.8113 16.4878 18.5904C16.4878 18.3695 16.3132 18.1904 16.0978 18.1904M16.0978 18.9904C15.8824 18.9904 15.7078 18.8113 15.7078 18.5904C15.7078 18.3695 15.8824 18.1904 16.0978 18.1904M16.0978 18.9904V18.1904M7.565 2.73529H17.315C20.0074 2.73529 22.19 4.97387 22.19 7.73529V17.5C22.19 20.2614 20.0074 22.5 17.315 22.5H7.565C4.87261 22.5 2.69 20.2614 2.69 17.5V7.73529C2.69 4.97387 4.87261 2.73529 7.565 2.73529Z" stroke="white" stroke-width="1.5" stroke-linecap="round"/>
</g>
</svg>
