<svg xmlns="http://www.w3.org/2000/svg" width="24" height="24" viewBox="0 0 24 24" fill="none">
    <path d="M12 4.48952L9.5849 3.28703C7.88621 2.44125 6.00327 2 4.09273 2H2V13.2667C2 14.3772 2.93073 15.2774 4.07884 15.2774C5.99851 15.2774 7.89044 15.7208 9.59725 16.5706L12 17.767M12 4.48952L14.4151 3.28703C16.1138 2.44125 17.9967 2 19.9073 2H22V13.2667C22 14.3772 21.0693 15.2774 19.9212 15.2774C18.0015 15.2774 16.1096 15.7208 14.4028 16.5706L12 17.767M12 4.48952V17.767M21.6771 18.5179C18.5353 18.5179 15.4773 19.4976 12.9566 21.3116L12 22L11.0434 21.3116C8.52282 19.4976 5.46476 18.5179 2.323 18.5179" stroke="#585858" stroke-width="1.5" stroke-linecap="round" stroke-linejoin="round"/>
</svg>