<svg width="24" height="24" viewBox="0 0 24 24" fill="none" xmlns="http://www.w3.org/2000/svg">
<g id="briefcase">
<path id="Vector" d="M3.20529 7.05698C4.8824 10.2002 8.19041 12.3124 12 12.3124C15.8096 12.3124 19.1115 10.1944 20.7886 7.05117M8.04346 5.91489C8.04346 3.72568 9.81065 1.9585 11.9998 1.9585C14.1891 1.9585 15.9562 3.72568 15.9562 5.91489M15.5542 10.3576V13.7451M8.89062 13.7451V10.3576M6.00391 5.91492H17.9959C20.2051 5.91492 21.9959 7.70578 21.9959 9.91492V18.0411C21.9959 20.2503 20.2051 22.0411 17.9959 22.0411H6.00391C3.79477 22.0411 2.00391 20.2503 2.00391 18.0411V9.91492C2.00391 7.70578 3.79477 5.91492 6.00391 5.91492Z" stroke="white" stroke-width="1.5" stroke-miterlimit="10" stroke-linecap="round"/>
</g>
</svg>
