<svg xmlns="http://www.w3.org/2000/svg" width="24" height="24" viewBox="0 0 24 24" fill="none">
    <path d="M9.05615 1.375C9.05615 0.960786 8.72037 0.625 8.30615 0.625C7.89194 0.625 7.55615 0.960786 7.55615 1.375H9.05615ZM7.55615 3.875C7.55615 4.28921 7.89194 4.625 8.30615 4.625C8.72037 4.625 9.05615 4.28921 9.05615 3.875H7.55615ZM16.4438 1.375C16.4438 0.960786 16.1081 0.625 15.6938 0.625C15.2796 0.625 14.9438 0.960786 14.9438 1.375H16.4438ZM14.9438 3.875C14.9438 4.28921 15.2796 4.625 15.6938 4.625C16.1081 4.625 16.4438 4.28921 16.4438 3.875H14.9438ZM12.75 13.3656C12.75 12.9514 12.4142 12.6156 12 12.6156C11.5858 12.6156 11.25 12.9514 11.25 13.3656H12.75ZM11.25 18.8656C11.25 19.2798 11.5858 19.6156 12 19.6156C12.4142 19.6156 12.75 19.2798 12.75 18.8656H11.25ZM14.75 16.8656C15.1642 16.8656 15.5 16.5298 15.5 16.1156C15.5 15.7014 15.1642 15.3656 14.75 15.3656V16.8656ZM9.25 15.3656C8.83579 15.3656 8.5 15.7014 8.5 16.1156C8.5 16.5298 8.83579 16.8656 9.25 16.8656L9.25 15.3656ZM6 3.375H8.30615V1.875H6V3.375ZM8.30615 3.375H15.6938V1.875H8.30615V3.375ZM15.6938 3.375H18V1.875H15.6938V3.375ZM18 21.875H6V23.375H18V21.875ZM6 21.875C4.20507 21.875 2.75 20.4199 2.75 18.625H1.25C1.25 21.2484 3.37665 23.375 6 23.375V21.875ZM21.25 18.625C21.25 20.4199 19.7949 21.875 18 21.875V23.375C20.6234 23.375 22.75 21.2484 22.75 18.625H21.25ZM18 3.375C19.7949 3.375 21.25 4.83007 21.25 6.625H22.75C22.75 4.00165 20.6234 1.875 18 1.875V3.375ZM6 1.875C3.37665 1.875 1.25 4.00165 1.25 6.625H2.75C2.75 4.83007 4.20507 3.375 6 3.375V1.875ZM7.55615 1.375V2.625H9.05615V1.375H7.55615ZM7.55615 2.625V3.875H9.05615V2.625H7.55615ZM14.9438 1.375V2.625H16.4438V1.375H14.9438ZM14.9438 2.625V3.875H16.4438V2.625H14.9438ZM21.25 6.625V9.55981H22.75V6.625H21.25ZM21.25 9.55981V18.625H22.75V9.55981H21.25ZM2.75 18.625V9.55981H1.25V18.625H2.75ZM2.75 9.55981V6.625H1.25V9.55981H2.75ZM2 10.3098H22V8.80981H2V10.3098ZM11.25 13.3656V16.1156H12.75V13.3656H11.25ZM11.25 16.1156V18.8656H12.75V16.1156H11.25ZM14.75 15.3656L12 15.3656V16.8656L14.75 16.8656V15.3656ZM12 15.3656L9.25 15.3656L9.25 16.8656L12 16.8656V15.3656Z" fill="white"/>
</svg>