<svg width="25" height="24" viewBox="0 0 25 24" fill="none" xmlns="http://www.w3.org/2000/svg">
<g id="BOOKING">
<path id="Exclude" fill-rule="evenodd" clip-rule="evenodd" d="M8.84088 0.75C9.2551 0.75 9.59088 1.08579 9.59088 1.5V1.98529H15.2891V1.5C15.2891 1.08579 15.6249 0.75 16.0391 0.75C16.4533 0.75 16.7891 1.08579 16.7891 1.5V1.98529H17.315C20.4394 1.98529 22.94 4.57767 22.94 7.73529V7.83826C22.94 8.39054 22.4923 8.83826 21.94 8.83826H2.94C2.38772 8.83826 1.94 8.39054 1.94 7.83826V7.73529C1.94 4.57767 4.44061 1.98529 7.565 1.98529H8.09088V1.5C8.09088 1.08579 8.42667 0.75 8.84088 0.75ZM1.94 17.5V11.3383C1.94 10.786 2.38772 10.3383 2.94 10.3383H21.94C22.4923 10.3383 22.94 10.786 22.94 11.3383V17.5C22.94 20.6576 20.4394 23.25 17.315 23.25H7.565C4.44061 23.25 1.94 20.6576 1.94 17.5ZM7.64526 13.6246C7.64526 13.0075 8.13787 12.4746 8.78526 12.4746C9.43265 12.4746 9.92526 13.0075 9.92526 13.6246C9.92526 14.2417 9.43266 14.7746 8.78526 14.7746C8.13787 14.7746 7.64526 14.2417 7.64526 13.6246ZM12.9087 13.631C12.9087 13.2168 13.2445 12.881 13.6587 12.881H16.0962C16.5105 12.881 16.8462 13.2168 16.8462 13.631C16.8462 14.0452 16.5105 14.381 16.0962 14.381H13.6587C13.2445 14.381 12.9087 14.0452 12.9087 13.631ZM14.9578 18.5904C14.9578 17.9733 15.4504 17.4404 16.0978 17.4404C16.7452 17.4404 17.2378 17.9733 17.2378 18.5904C17.2378 19.2075 16.7452 19.7404 16.0978 19.7404C15.4504 19.7404 14.9578 19.2075 14.9578 18.5904ZM8.03374 18.5847C8.03374 18.1705 8.36953 17.8347 8.78374 17.8347H11.2212C11.6355 17.8347 11.9712 18.1705 11.9712 18.5847C11.9712 18.9989 11.6355 19.3347 11.2212 19.3347H8.78374C8.36953 19.3347 8.03374 18.9989 8.03374 18.5847Z" fill="#585858"/>
</g>
</svg>
