<svg width="36" height="36" viewBox="0 0 36 36" fill="none" xmlns="http://www.w3.org/2000/svg">
<rect width="36" height="36" rx="7.5" fill="#EFF8FF"/>
<g clip-path="url(#clip0_14613_6571)">
<path d="M15.7921 10.0312C15.7921 9.72059 15.5403 9.46875 15.2296 9.46875C14.919 9.46875 14.6671 9.72059 14.6671 10.0312H15.7921ZM14.6671 11.9062C14.6671 12.2169 14.919 12.4688 15.2296 12.4688C15.5403 12.4688 15.7921 12.2169 15.7921 11.9062H14.6671ZM21.3329 10.0312C21.3329 9.72059 21.081 9.46875 20.7704 9.46875C20.4597 9.46875 20.2079 9.72059 20.2079 10.0312H21.3329ZM20.2079 11.9062C20.2079 12.2169 20.4597 12.4688 20.7704 12.4688C21.081 12.4688 21.3329 12.2169 21.3329 11.9062H20.2079ZM10.5764 15.6074C10.2658 15.6074 10.0139 15.8592 10.0139 16.1699C10.0139 16.4805 10.2658 16.7324 10.5764 16.7324V15.6074ZM25.4336 16.7324C25.7443 16.7324 25.9961 16.4805 25.9961 16.1699C25.9961 15.8592 25.7443 15.6074 25.4336 15.6074V16.7324ZM15.2218 20.2527C14.9112 20.2527 14.6593 20.5046 14.6593 20.8152C14.6593 21.1259 14.9112 21.3777 15.2218 21.3777V20.2527ZM20.7461 21.3777C21.0568 21.3777 21.3086 21.1259 21.3086 20.8152C21.3086 20.5046 21.0568 20.2527 20.7461 20.2527V21.3777ZM13.5 11.5312H22.5V10.4062H13.5V11.5312ZM24.9375 13.9688V22.9688H26.0625V13.9688H24.9375ZM22.5 25.4062H13.5V26.5312H22.5V25.4062ZM11.0625 22.9688V13.9687H9.9375V22.9688H11.0625ZM13.5 25.4062C12.1538 25.4062 11.0625 24.3149 11.0625 22.9688H9.9375C9.9375 24.9363 11.5325 26.5312 13.5 26.5312V25.4062ZM24.9375 22.9688C24.9375 24.3149 23.8462 25.4062 22.5 25.4062V26.5312C24.4675 26.5312 26.0625 24.9363 26.0625 22.9688H24.9375ZM22.5 11.5312C23.8462 11.5312 24.9375 12.6226 24.9375 13.9688H26.0625C26.0625 12.0012 24.4675 10.4062 22.5 10.4062V11.5312ZM13.5 10.4062C11.5325 10.4062 9.9375 12.0012 9.9375 13.9687H11.0625C11.0625 12.6226 12.1538 11.5312 13.5 11.5312V10.4062ZM14.6671 10.0312V11.9062H15.7921V10.0312H14.6671ZM20.2079 10.0312V11.9062H21.3329V10.0312H20.2079ZM10.5764 16.7324H25.4336V15.6074H10.5764V16.7324ZM15.2218 21.3777H20.7461V20.2527H15.2218V21.3777Z" fill="#1570EF"/>
</g>
<defs>
<clipPath id="clip0_14613_6571">
<rect width="18" height="18" fill="white" transform="translate(9 9)"/>
</clipPath>
</defs>
</svg>
