<svg xmlns="http://www.w3.org/2000/svg" width="24" height="24" viewBox="0 0 24 24" fill="none">
    <path d="M13.1729 5.18377C14.9797 5.18377 16.4444 6.64996 16.4444 8.45861M7.55558 16.4177V21.1357C7.55558 22.0523 8.60089 22.5755 9.33338 22.0255L10.6667 21.0245C11.4568 20.4313 12.5432 20.4313 13.3334 21.0245L14.6667 22.0255C15.3992 22.5755 16.4445 22.0523 16.4445 21.1357V16.4177M7.55558 16.4177C8.82677 17.2695 10.3554 17.7662 12 17.7662C13.6446 17.7662 15.1733 17.2695 16.4445 16.4177M7.55558 16.4177C5.41159 14.9811 4 12.5346 4 9.75811C4 5.33535 7.58172 1.75 12 1.75C16.4183 1.75 20 5.33535 20 9.75811C20 12.5346 18.5884 14.9811 16.4445 16.4177" stroke="#585858" stroke-width="1.5" stroke-miterlimit="10" stroke-linecap="round"/>
</svg>