<svg width="22" height="23" viewBox="0 0 22 23" fill="none" xmlns="http://www.w3.org/2000/svg">
<path id="Vector" d="M8.05615 0.875C8.05615 0.460786 7.72037 0.125 7.30615 0.125C6.89194 0.125 6.55615 0.460786 6.55615 0.875H8.05615ZM6.55615 3.375C6.55615 3.78921 6.89194 4.125 7.30615 4.125C7.72037 4.125 8.05615 3.78921 8.05615 3.375H6.55615ZM15.4438 0.875C15.4438 0.460786 15.1081 0.125 14.6938 0.125C14.2796 0.125 13.9438 0.460786 13.9438 0.875H15.4438ZM13.9438 3.375C13.9438 3.78921 14.2796 4.125 14.6938 4.125C15.1081 4.125 15.4438 3.78921 15.4438 3.375H13.9438ZM1.10193 8.30981C0.687715 8.30981 0.351929 8.6456 0.351929 9.05981C0.351929 9.47403 0.687715 9.80981 1.10193 9.80981V8.30981ZM20.9115 9.80981C21.3257 9.80981 21.6615 9.47403 21.6615 9.05981C21.6615 8.6456 21.3257 8.30981 20.9115 8.30981V9.80981ZM7.29578 14.5037C6.88156 14.5037 6.54578 14.8394 6.54578 15.2537C6.54578 15.6679 6.88156 16.0037 7.29578 16.0037V14.5037ZM14.6615 16.0037C15.0757 16.0037 15.4115 15.6679 15.4115 15.2537C15.4115 14.8394 15.0757 14.5037 14.6615 14.5037V16.0037ZM5 2.875H17V1.375H5V2.875ZM20.25 6.125V18.125H21.75V6.125H20.25ZM17 21.375H5V22.875H17V21.375ZM1.75 18.125V6.125H0.25V18.125H1.75ZM5 21.375C3.20507 21.375 1.75 19.9199 1.75 18.125H0.25C0.25 20.7484 2.37665 22.875 5 22.875V21.375ZM20.25 18.125C20.25 19.9199 18.7949 21.375 17 21.375V22.875C19.6234 22.875 21.75 20.7484 21.75 18.125H20.25ZM17 2.875C18.7949 2.875 20.25 4.33007 20.25 6.125H21.75C21.75 3.50165 19.6234 1.375 17 1.375V2.875ZM5 1.375C2.37665 1.375 0.25 3.50165 0.25 6.125H1.75C1.75 4.33007 3.20507 2.875 5 2.875V1.375ZM6.55615 0.875V3.375H8.05615V0.875H6.55615ZM13.9438 0.875V3.375H15.4438V0.875H13.9438ZM1.10193 9.80981H20.9115V8.30981H1.10193V9.80981ZM7.29578 16.0037H14.6615V14.5037H7.29578V16.0037Z" fill="#1570EF"/>
</svg>
