<svg width="13" height="13" viewBox="0 0 13 13" fill="none" xmlns="http://www.w3.org/2000/svg">
<g clip-path="url(#clip0_12693_12437)">
<path opacity="0.8" d="M4.80762 0.692383V2.19238M8.80762 0.692383V2.19238M4.80762 6.19238H6.80762H8.80762M4.20762 11.1924H9.40762C10.2477 11.1924 10.6677 11.1924 10.9886 11.0289C11.2708 10.8851 11.5003 10.6556 11.6441 10.3734C11.8076 10.0525 11.8076 9.63246 11.8076 8.79238V3.59238C11.8076 2.7523 11.8076 2.33226 11.6441 2.0114C11.5003 1.72915 11.2708 1.49968 10.9886 1.35587C10.6677 1.19238 10.2477 1.19238 9.40762 1.19238H4.20762C3.36754 1.19238 2.9475 1.19238 2.62663 1.35587C2.34439 1.49968 2.11492 1.72915 1.97111 2.0114C1.80762 2.33226 1.80762 2.7523 1.80762 3.59238V8.79238C1.80762 9.63246 1.80762 10.0525 1.97111 10.3734C2.11492 10.6556 2.34439 10.8851 2.62663 11.0289C2.9475 11.1924 3.36754 11.1924 4.20762 11.1924Z" stroke="#585858" stroke-width="1.3"/>
</g>
<defs>
<clipPath id="clip0_12693_12437">
<rect width="12" height="12" fill="white" transform="translate(0.807617 0.192383)"/>
</clipPath>
</defs>
</svg>
