<svg width="19" height="19" viewBox="0 0 19 19" fill="none" xmlns="http://www.w3.org/2000/svg">
<g clip-path="url(#clip0_12613_12295)">
<path opacity="0.7" d="M6.82715 0.942383V3.19238M12.8271 0.942383V3.19238M6.82715 9.19238H9.82715H12.8271M8.92715 16.6924H10.7271C13.0374 16.6924 14.1925 16.6924 15.0749 16.2428C15.851 15.8473 16.4821 15.2163 16.8776 14.4401C17.3271 13.5577 17.3271 12.4026 17.3271 10.0924V8.29238C17.3271 5.98217 17.3271 4.82706 16.8776 3.94467C16.4821 3.1685 15.851 2.53746 15.0749 2.14198C14.1925 1.69238 13.0374 1.69238 10.7271 1.69238H8.92715C6.61693 1.69238 5.46182 1.69238 4.57944 2.14198C3.80327 2.53746 3.17222 3.1685 2.77675 3.94467C2.32715 4.82706 2.32715 5.98217 2.32715 8.29238V10.0924C2.32715 12.4026 2.32715 13.5577 2.77675 14.4401C3.17222 15.2163 3.80327 15.8473 4.57944 16.2428C5.46182 16.6924 6.61693 16.6924 8.92715 16.6924Z" stroke="#585858" stroke-width="1.3" stroke-linecap="round" stroke-linejoin="round"/>
</g>
<defs>
<clipPath id="clip0_12613_12295">
<rect width="18" height="18" fill="white" transform="translate(0.827148 0.192383)"/>
</clipPath>
</defs>
</svg>
