<svg width="70" height="70" viewBox="0 0 70 70" fill="none" xmlns="http://www.w3.org/2000/svg">
<rect width="70" height="70" rx="35" fill="#FEF3F2"/>
<path opacity="0.7" d="M25 26.25L26.0064 43.3584C26.0921 44.8161 26.135 45.545 26.4461 46.0982C26.72 46.5851 27.1357 46.9771 27.6379 47.2219C28.2084 47.5 28.9385 47.5 30.3988 47.5H39.6012C41.0615 47.5 41.7916 47.5 42.3621 47.2219C42.8643 46.9771 43.28 46.5851 43.5539 46.0982C43.865 45.545 43.9079 44.8161 43.9936 43.3584L45 26.25M25 26.25H22.5M25 26.25H45M45 26.25H47.5M40 26.25L39.1261 23.6282C38.9908 23.2225 38.9232 23.0197 38.7978 22.8697C38.6871 22.7373 38.5448 22.6347 38.3842 22.5716C38.2022 22.5 37.9884 22.5 37.5607 22.5H32.4393C32.0116 22.5 31.7978 22.5 31.6158 22.5716C31.4552 22.6347 31.3129 22.7373 31.2022 22.8697C31.0768 23.0197 31.0092 23.2225 30.8739 23.6282L30 26.25M32.5 32.5V41.25M37.5 32.5V37.5" stroke="#F04438" stroke-width="2" stroke-linecap="round" stroke-linejoin="round"/>
</svg>
