<svg width="95" height="81" viewBox="0 0 95 81" fill="none" xmlns="http://www.w3.org/2000/svg">
<g clip-path="url(#clip0_12788_5962)">
<g opacity="0.3" filter="url(#filter0_d_12788_5962)">
<circle cx="18.9618" cy="4.87025" r="3.34606" stroke="#C4C3C1" stroke-width="1.85259" shape-rendering="crispEdges"/>
</g>
<g opacity="0.8" filter="url(#filter1_d_12788_5962)">
<circle cx="89.787" cy="65.0289" r="3.34606" stroke="#749287" stroke-width="1.85259" shape-rendering="crispEdges"/>
</g>
<circle opacity="0.8" cx="2.55991" cy="20.5008" r="2.43198" fill="#D1E3DA"/>
<circle cx="44.9198" cy="78.8883" r="1.5975" fill="#B3C5E8"/>
<g opacity="0.3" filter="url(#filter2_d_12788_5962)">
<path d="M88.86 28.1707L90.089 32.4772L94.4331 31.3883L91.3181 34.6059L94.4331 37.8235L90.089 36.7346L88.86 41.0411L87.631 36.7346L83.287 37.8235L86.402 34.6059L83.287 31.3883L87.631 32.4772L88.86 28.1707Z" fill="#EE4710"/>
</g>
<g opacity="0.4" filter="url(#filter3_d_12788_5962)">
<path d="M10.193 44.4292L11.6378 48.8758H16.3133L12.5308 51.624L13.9756 56.0706L10.193 53.3225L6.4105 56.0706L7.8553 51.624L4.07277 48.8758H8.74823L10.193 44.4292Z" fill="#EE4710"/>
</g>
<path d="M35.0441 79.9337C34.1732 79.6461 33.704 79.021 33.4051 78.1677C32.5389 75.6946 31.623 73.2376 30.7247 70.7758C30.4692 70.0735 30.1526 69.9241 29.444 70.1796C26.8841 71.1052 24.3259 72.0308 21.7708 72.9676C20.9931 73.2537 20.2748 73.2103 19.6272 72.6687C18.8623 72.0308 18.7032 71.1405 19.1837 70.1073C20.6428 66.9673 22.1115 63.8322 23.577 60.6954C24.4223 58.8844 25.2643 57.0734 26.1513 55.1692C30.3969 61.0859 36.0388 64.7208 43.1672 66.106C43.0772 66.3245 43.0129 66.5045 42.9326 66.6781C41.1489 70.5058 39.3507 74.3271 37.5879 78.1645C37.2328 78.9358 36.8005 79.5818 36.0083 79.9353C35.6869 79.9337 35.3655 79.9337 35.0441 79.9337Z" fill="#295C51"/>
<path d="M59.3521 79.9335C58.5583 79.5799 58.1276 78.9323 57.7741 78.161C56.0113 74.3236 54.2147 70.504 52.4294 66.6762C52.3539 66.5139 52.2848 66.3484 52.1787 66.1074C55.624 65.4598 58.817 64.2449 61.7416 62.3648C64.6759 60.4783 67.1393 58.0968 69.1705 55.1882C69.2765 55.3682 69.3649 55.4952 69.4292 55.6334C71.6725 60.4381 73.9158 65.2428 76.1542 70.0508C76.8275 71.4986 76.1574 72.9433 74.7032 73.1104C74.2886 73.1586 73.8258 73.0413 73.4224 72.8983C70.9349 72.0129 68.457 71.0985 65.9759 70.1938C65.1949 69.9094 64.9057 70.0444 64.6164 70.8334C63.7246 73.2759 62.8134 75.712 61.9537 78.1674C61.6548 79.0207 61.1872 79.6458 60.3146 79.9335C59.9932 79.9335 59.6719 79.9335 59.3521 79.9335Z" fill="#295C51"/>
<path d="M69.7576 40.4146C69.7721 52.5711 59.8557 62.4891 47.6847 62.4923C35.517 62.4955 25.6134 52.6 25.6006 40.4259C25.591 28.2726 35.5074 18.353 47.6751 18.3481C59.8444 18.3433 69.7448 28.2356 69.7576 40.4146ZM59.0136 37.4193C59.012 36.2446 58.2873 35.5086 56.9953 35.3238C55.4896 35.1085 53.9823 34.89 52.475 34.6875C52.0942 34.6361 51.8354 34.5091 51.6539 34.1234C50.9918 32.7109 50.2751 31.3242 49.5986 29.9181C49.2097 29.1098 48.628 28.5908 47.704 28.5811C46.7511 28.5715 46.1565 29.1018 45.758 29.9309C45.0992 31.3017 44.3905 32.6483 43.7542 34.0286C43.5485 34.4754 43.2705 34.6425 42.8125 34.7003C41.3036 34.8932 39.7995 35.1214 38.2922 35.3319C37.4116 35.4556 36.7286 35.8477 36.4474 36.7363C36.1694 37.6121 36.4426 38.3368 37.0966 38.9603C38.2424 40.053 39.3624 41.1715 40.5081 42.2642C40.7685 42.5117 40.8472 42.7463 40.7813 43.1078C40.4937 44.6617 40.2543 46.2253 39.965 47.7808C39.7995 48.6743 39.9987 49.4183 40.7412 49.9598C41.5141 50.5222 42.3047 50.421 43.1114 49.9855C44.4853 49.2431 45.8801 48.5409 47.2509 47.7969C47.5722 47.6233 47.8085 47.6265 48.1266 47.8001C49.5697 48.5827 51.0256 49.3379 52.4814 50.0964C53.2238 50.4821 53.9598 50.4499 54.6331 49.9534C55.3032 49.4584 55.5619 48.7803 55.4173 47.9463C55.1393 46.349 54.8838 44.7485 54.593 43.1528C54.5255 42.78 54.5785 42.5261 54.8645 42.2545C56.0296 41.1538 57.1689 40.0257 58.3178 38.9073C58.7533 38.4863 59.0345 37.9962 59.0136 37.4193Z" fill="#7EA59C"/>
</g>
<defs>
<filter id="filter0_d_12788_5962" x="-35.7348" y="-18.796" width="109.393" height="109.393" filterUnits="userSpaceOnUse" color-interpolation-filters="sRGB">
<feFlood flood-opacity="0" result="BackgroundImageFix"/>
<feColorMatrix in="SourceAlpha" type="matrix" values="0 0 0 0 0 0 0 0 0 0 0 0 0 0 0 0 0 0 127 0" result="hardAlpha"/>
<feMorphology radius="11.6364" operator="erode" in="SourceAlpha" result="effect1_dropShadow_12788_5962"/>
<feOffset dy="31.0303"/>
<feGaussianBlur stdDeviation="31.0303"/>
<feComposite in2="hardAlpha" operator="out"/>
<feColorMatrix type="matrix" values="0 0 0 0 0.0625882 0 0 0 0 0.0926346 0 0 0 0 0.15702 0 0 0 0.14 0"/>
<feBlend mode="normal" in2="BackgroundImageFix" result="effect1_dropShadow_12788_5962"/>
<feBlend mode="normal" in="SourceGraphic" in2="effect1_dropShadow_12788_5962" result="shape"/>
</filter>
<filter id="filter1_d_12788_5962" x="35.0904" y="41.3627" width="109.393" height="109.393" filterUnits="userSpaceOnUse" color-interpolation-filters="sRGB">
<feFlood flood-opacity="0" result="BackgroundImageFix"/>
<feColorMatrix in="SourceAlpha" type="matrix" values="0 0 0 0 0 0 0 0 0 0 0 0 0 0 0 0 0 0 127 0" result="hardAlpha"/>
<feMorphology radius="11.6364" operator="erode" in="SourceAlpha" result="effect1_dropShadow_12788_5962"/>
<feOffset dy="31.0303"/>
<feGaussianBlur stdDeviation="31.0303"/>
<feComposite in2="hardAlpha" operator="out"/>
<feColorMatrix type="matrix" values="0 0 0 0 0.0625882 0 0 0 0 0.0926346 0 0 0 0 0.15702 0 0 0 0.14 0"/>
<feBlend mode="normal" in2="BackgroundImageFix" result="effect1_dropShadow_12788_5962"/>
<feBlend mode="normal" in="SourceGraphic" in2="effect1_dropShadow_12788_5962" result="shape"/>
</filter>
<filter id="filter2_d_12788_5962" x="32.8629" y="8.77671" width="111.994" height="113.719" filterUnits="userSpaceOnUse" color-interpolation-filters="sRGB">
<feFlood flood-opacity="0" result="BackgroundImageFix"/>
<feColorMatrix in="SourceAlpha" type="matrix" values="0 0 0 0 0 0 0 0 0 0 0 0 0 0 0 0 0 0 127 0" result="hardAlpha"/>
<feMorphology radius="11.6364" operator="erode" in="SourceAlpha" result="effect1_dropShadow_12788_5962"/>
<feOffset dy="31.0303"/>
<feGaussianBlur stdDeviation="31.0303"/>
<feComposite in2="hardAlpha" operator="out"/>
<feColorMatrix type="matrix" values="0 0 0 0 0.0625882 0 0 0 0 0.0926346 0 0 0 0 0.15702 0 0 0 0.14 0"/>
<feBlend mode="normal" in2="BackgroundImageFix" result="effect1_dropShadow_12788_5962"/>
<feBlend mode="normal" in="SourceGraphic" in2="effect1_dropShadow_12788_5962" result="shape"/>
</filter>
<filter id="filter3_d_12788_5962" x="-46.351" y="25.0353" width="113.089" height="112.49" filterUnits="userSpaceOnUse" color-interpolation-filters="sRGB">
<feFlood flood-opacity="0" result="BackgroundImageFix"/>
<feColorMatrix in="SourceAlpha" type="matrix" values="0 0 0 0 0 0 0 0 0 0 0 0 0 0 0 0 0 0 127 0" result="hardAlpha"/>
<feMorphology radius="11.6364" operator="erode" in="SourceAlpha" result="effect1_dropShadow_12788_5962"/>
<feOffset dy="31.0303"/>
<feGaussianBlur stdDeviation="31.0303"/>
<feComposite in2="hardAlpha" operator="out"/>
<feColorMatrix type="matrix" values="0 0 0 0 0.0625882 0 0 0 0 0.0926346 0 0 0 0 0.15702 0 0 0 0.14 0"/>
<feBlend mode="normal" in2="BackgroundImageFix" result="effect1_dropShadow_12788_5962"/>
<feBlend mode="normal" in="SourceGraphic" in2="effect1_dropShadow_12788_5962" result="shape"/>
</filter>
<clipPath id="clip0_12788_5962">
<rect width="94.5455" height="80" fill="white" transform="translate(0.0351562 0.192383)"/>
</clipPath>
</defs>
</svg>
