<svg width="22" height="20" viewBox="0 0 22 20" fill="none" xmlns="http://www.w3.org/2000/svg">
<path id="Vector" d="M19.5991 13.851C20.0178 13.2417 20.408 12.5765 20.7661 11.8565C21.0782 11.2292 21.0782 10.4918 20.7661 9.86438C17.9959 4.29571 13.267 2.03618 8.9073 3.08578M6.05091 4.3035C4.20878 5.46801 2.48886 7.34206 1.23408 9.86438C0.921974 10.4918 0.921974 11.2292 1.23408 11.8565C5.01588 19.4586 12.6592 20.8037 17.8193 16.0719M9.81858 8.07117C8.83404 8.56058 8.0223 9.68639 8.0223 10.8605C8.0223 12.5121 9.36121 13.851 11.0128 13.851C12.1873 13.851 13.3079 13.0348 13.7971 12.0497M2.8623 1.1149L20.6263 18.8788" stroke="white" stroke-width="1.5" stroke-linecap="round" stroke-linejoin="round"/>
</svg>
