<svg width="23" height="23" viewBox="0 0 23 23" fill="none" xmlns="http://www.w3.org/2000/svg">
<path fill-rule="evenodd" clip-rule="evenodd" d="M10.0652 0.763415C10.815 0.409692 11.685 0.409693 12.4348 0.763416C12.9539 1.00829 13.3221 1.47181 13.6484 1.99568C13.9764 2.52242 14.3364 3.2384 14.7846 4.13001L15.1633 4.88348C15.4707 5.49485 15.5601 5.65507 15.6723 5.77187C15.788 5.89236 15.9268 5.98861 16.0805 6.05497C16.2295 6.11931 16.4115 6.14734 17.0945 6.22282L17.4618 6.26341C18.5386 6.3824 19.3987 6.47745 20.0499 6.60919C20.6921 6.73912 21.2907 6.93145 21.7097 7.35661C22.3091 7.96492 22.5913 8.81518 22.4738 9.65891C22.3917 10.2486 22.0259 10.7576 21.5877 11.2423C21.1433 11.7337 20.5091 12.3195 19.7152 13.0527L19.34 13.3992C18.7387 13.9546 18.5845 14.1117 18.4981 14.279C18.4089 14.4517 18.3614 14.6428 18.3593 14.8369C18.3574 15.0247 18.4214 15.2391 18.6968 16.0198L18.7099 16.0568C19.1163 17.2088 19.4381 18.1212 19.6209 18.831C19.7984 19.5205 19.8979 20.1976 19.6664 20.7839C19.3407 21.609 18.6352 22.2273 17.7712 22.4448C17.159 22.599 16.502 22.4194 15.8426 22.1607C15.1656 21.8951 14.3083 21.4688 13.2275 20.9313L12.3516 20.4957C11.785 20.2139 11.6303 20.1445 11.4818 20.1168C11.3286 20.0882 11.1714 20.0882 11.0183 20.1168C10.8697 20.1445 10.7151 20.2139 10.1484 20.4957L9.27244 20.9313C8.19165 21.4688 7.33442 21.8951 6.65743 22.1607C5.99796 22.4194 5.34096 22.599 4.72875 22.4448C3.86481 22.2273 3.15926 21.609 2.83358 20.7839C2.60214 20.1976 2.70161 19.5205 2.87914 18.831C3.06188 18.1211 3.38376 17.2088 3.79018 16.0567L3.80321 16.0198C4.07861 15.2391 4.14265 15.0247 4.14067 14.8369C4.13861 14.6428 4.09111 14.4517 4.00191 14.279C3.91553 14.1117 3.76134 13.9546 3.15997 13.3992L2.78476 13.0527C1.99086 12.3194 1.35667 11.7337 0.912318 11.2423C0.474079 10.7576 0.108309 10.2486 0.0261778 9.65891C-0.0913338 8.81518 0.190879 7.96492 0.790339 7.35661C1.20931 6.93145 1.80785 6.73912 2.4501 6.60919C3.1013 6.47745 3.96144 6.3824 5.03818 6.26341L5.40546 6.22282C6.08849 6.14734 6.27054 6.11931 6.41953 6.05497C6.57321 5.98861 6.71199 5.89236 6.82773 5.77188C6.93993 5.65507 7.02931 5.49485 7.33665 4.88348L7.71544 4.13C8.16364 3.23839 8.52356 2.52242 8.85162 1.99568C9.17789 1.47181 9.54608 1.00829 10.0652 0.763415Z" fill="#FDB022"/>
</svg>
