<svg width="24" height="24" viewBox="0 0 24 24" fill="none" xmlns="http://www.w3.org/2000/svg">
<g id="sliders-vert">
<path id="Vector" d="M11.7716 9.95972V1.98195M11.7716 21.9819V18.0708M3.94842 14.0042L3.94843 21.9819M3.94843 1.98193L3.94843 5.89304M19.5947 14.0042V21.9819M19.5947 1.98193V5.89304M1.77148 8.84021L1.77148 7.39036C1.77148 6.56342 2.42809 5.89306 3.23805 5.89306L4.65815 5.89306C5.46812 5.89306 6.12472 6.56342 6.12472 7.39036V8.84021C6.12472 9.66714 5.46812 10.3375 4.65815 10.3375H3.23805C2.42809 10.3375 1.77148 9.66714 1.77148 8.84021ZM9.5951 16.5735V15.1237C9.5951 14.2967 10.2517 13.6264 11.0617 13.6264H12.4818C13.2917 13.6264 13.9483 14.2967 13.9483 15.1237V16.5735C13.9483 17.4005 13.2917 18.0708 12.4818 18.0708H11.0617C10.2517 18.0708 9.5951 17.4005 9.5951 16.5735ZM17.4182 8.84019V7.39034C17.4182 6.56341 18.0749 5.89305 18.8848 5.89305L20.3049 5.89305C21.1149 5.89305 21.7715 6.56341 21.7715 7.39034V8.84019C21.7715 9.66713 21.1149 10.3375 20.3049 10.3375H18.8848C18.0749 10.3375 17.4182 9.66713 17.4182 8.84019Z" stroke="white" stroke-width="1.5" stroke-miterlimit="10" stroke-linecap="round" stroke-linejoin="round"/>
</g>
</svg>
