<svg width="28" height="27" viewBox="0 0 28 27" fill="none" xmlns="http://www.w3.org/2000/svg">
<g id="alert-triangle">
<path id="Vector" d="M14 15.0713V10.7856M14.5357 18.8213C14.5357 19.1172 14.2959 19.357 14 19.357C13.7041 19.357 13.4643 19.1172 13.4643 18.8213M14.5357 18.8213C14.5357 18.5255 14.2959 18.2856 14 18.2856C13.7041 18.2856 13.4643 18.5255 13.4643 18.8213M14.5357 18.8213H13.4643M25.0701 17.6965L18.1132 5.27354C16.7689 2.87295 16.0967 1.67265 15.2125 1.2734C14.4416 0.925328 13.5584 0.925328 12.7875 1.2734C11.9033 1.67265 11.2311 2.87295 9.88676 5.27354L2.92991 17.6965C1.63768 20.004 0.991558 21.1578 1.09963 22.1026C1.19393 22.9269 1.63137 23.6732 2.30449 24.1583C3.07602 24.7142 4.3984 24.7142 7.04316 24.7142H20.9568C23.6016 24.7142 24.924 24.7142 25.6955 24.1583C26.3686 23.6732 26.8061 22.9269 26.9004 22.1026C27.0084 21.1578 26.3623 20.004 25.0701 17.6965Z" stroke="#B42318" stroke-width="1.28571" stroke-linecap="round" stroke-linejoin="round"/>
</g>
</svg>
