<svg xmlns="http://www.w3.org/2000/svg" width="24" height="24" viewBox="0 0 24 24" fill="none">
    <path d="M9.78335 13.9537C9.78335 14.7786 10.788 15.5803 11.8562 15.5803C13.1322 15.5803 14.1657 14.9355 14.2235 13.9479C14.3967 10.9737 9.78336 12.8152 9.77181 10.0733C9.76603 9.08572 10.5802 8.41187 11.8504 8.41187C12.907 8.41187 14.2235 8.93468 14.2235 10.0849M11.8598 16.4813V15.5808M11.8589 8.41334V7.51874M8.78091 20.2053L11.2191 21.7706C11.6956 22.0765 12.3044 22.0765 12.7809 21.7706L15.2191 20.2053C15.6956 19.8994 16.3045 19.8994 16.7809 20.2053L18.2116 21.1238C18.9863 21.6211 20 21.0597 20 20.1334V3.8666C20 2.94026 18.9863 2.37887 18.2116 2.87619L16.7809 3.79471C16.3045 4.1006 15.6956 4.1006 15.2191 3.79471L12.7809 2.22941C12.3044 1.92353 11.6956 1.92353 11.2191 2.22941L8.78091 3.79471C8.30445 4.1006 7.69555 4.1006 7.21909 3.79471L5.78836 2.8762C5.0137 2.37887 4 2.94026 4 3.8666V20.1334C4 21.0597 5.0137 21.6211 5.78836 21.1238L7.21909 20.2053C7.69555 19.8994 8.30445 19.8994 8.78091 20.2053Z" stroke="#585858" stroke-width="1.5" stroke-miterlimit="10" stroke-linecap="round"/>
</svg>