<svg xmlns="http://www.w3.org/2000/svg" width="24" height="24" viewBox="0 0 24 24" fill="none">
    <path d="M9.2897 2.37164L9.82697 3.45315C10.0964 4.00054 10.0539 4.64998 9.71547 5.1576C9.03052 6.18502 9.62635 7.57754 10.8425 7.79153L13.3196 8.22742C13.815 8.3146 14.3253 8.22216 14.7587 7.96673C15.4948 7.53286 16.4198 7.58504 17.1024 8.09895L17.9159 8.71134C18.7985 9.37575 19.9352 9.60305 21.0054 9.32912L21.5962 9.17788M9.2897 2.37164C10.1516 2.12951 11.0607 2 12 2C16.5428 2 20.3781 5.02919 21.5962 9.17788M9.2897 2.37164C5.46371 3.44643 2.56633 6.74032 2.07406 10.7768M2.07406 10.7768C2.02517 11.1777 2 11.5859 2 12C2 17.5228 6.47715 22 12 22C13.4257 22 14.7818 21.7016 16.0091 21.1639M2.07406 10.7768L4.51222 10.7682C5.40638 10.7682 6.18004 11.3904 6.37171 12.2638C6.64137 13.4926 8.00751 14.1266 9.12 13.5393L10.2062 12.9658C10.6754 12.7181 11.2306 12.6746 11.734 12.8424C12.7894 13.1942 13.3411 14.3682 12.9229 15.3991L12.8786 15.5083C12.7095 15.9251 12.3777 16.2549 11.9598 16.4213L11.5235 16.5952C10.9836 16.8102 10.6944 17.3993 10.8544 17.958C10.9782 18.3904 11.3464 18.7084 11.7923 18.768L13.7377 19.0282C14.6275 19.1472 15.3852 19.7341 15.7228 20.566L16.0091 21.1639M16.0091 21.1639C19.5361 19.6187 22 16.0971 22 12C22 11.02 21.859 10.0729 21.5962 9.17788" stroke="#585858" stroke-width="1.5" stroke-miterlimit="10"/>
</svg>