<svg width="24" height="24" viewBox="0 0 24 24" fill="none" xmlns="http://www.w3.org/2000/svg">
<g id="location">
<path id="Vector" d="M14.6952 19.893L14.1172 19.4152L14.6952 19.893ZM9.30495 19.8895L9.88389 19.4127L9.30495 19.8895ZM5.48242 10.0981C5.48242 6.49869 8.40033 3.58078 11.9998 3.58078V2.08078C7.57191 2.08078 3.98242 5.67027 3.98242 10.0981H5.48242ZM11.9998 3.58078C15.5992 3.58078 18.5171 6.49869 18.5171 10.0981H20.0171C20.0171 5.67027 16.4276 2.08078 11.9998 2.08078V3.58078ZM18.5171 10.0981C18.5171 13.1832 16.4688 16.5703 14.1172 19.4152L15.2733 20.3708C17.6505 17.495 20.0171 13.7498 20.0171 10.0981H18.5171ZM9.88389 19.4127C7.55005 16.5788 5.48242 13.1677 5.48242 10.0981H3.98242C3.98242 13.7352 6.37 17.5055 8.72601 20.3663L9.88389 19.4127ZM14.1172 19.4152C13.0096 20.755 10.9883 20.7537 9.88389 19.4127L8.72601 20.3663C10.4304 22.4358 13.5658 22.4365 15.2733 20.3708L14.1172 19.4152ZM14.25 9.8378C14.25 11.0804 13.2426 12.0878 12 12.0878V13.5878C14.0711 13.5878 15.75 11.9089 15.75 9.8378H14.25ZM12 12.0878C10.7574 12.0878 9.75 11.0804 9.75 9.8378H8.25C8.25 11.9089 9.92893 13.5878 12 13.5878V12.0878ZM9.75 9.8378C9.75 8.59516 10.7574 7.5878 12 7.5878V6.0878C9.92893 6.0878 8.25 7.76673 8.25 9.8378H9.75ZM12 7.5878C13.2426 7.5878 14.25 8.59516 14.25 9.8378H15.75C15.75 7.76673 14.0711 6.0878 12 6.0878V7.5878Z" fill="white"/>
</g>
</svg>
