<svg xmlns="http://www.w3.org/2000/svg" width="24" height="24" viewBox="0 0 24 24" fill="none">
    <path d="M15.547 5.49589C15.547 6.20822 15.3271 6.87672 14.9642 7.42466C14.3374 8.36713 13.2598 8.99179 12.0392 8.99179C10.8186 8.99179 9.74098 8.36713 9.11419 7.42466C8.75132 6.87672 8.53139 6.20822 8.53139 5.49589C8.53139 3.56712 10.1039 2 12.0392 2C13.9745 2 15.547 3.56712 15.547 5.49589Z" stroke="#585858" stroke-width="1.5" stroke-miterlimit="10" stroke-linecap="round" stroke-linejoin="round"/>
    <path d="M19.6696 14.7928C20.8783 16.6367 20.1023 19.0812 18.2373 20.2627C16.5161 21.353 14.3427 22 12.05 22C9.65105 22 7.18474 21.1498 5.39554 19.9233C3.86744 18.8757 3.29083 16.9198 4.14894 15.2811C4.51666 14.5789 5.01016 13.8913 5.61719 13.3753C6.66183 12.4877 8.25629 12.2466 9.53186 12.9151C10.2686 13.2986 11.1263 13.5178 12.061 13.5178C12.9957 13.5178 13.8534 13.2986 14.5901 12.9151C15.8657 12.2466 17.5372 12.411 18.5048 13.3753C18.9353 13.8044 19.3336 14.2803 19.6696 14.7928Z" stroke="#585858" stroke-width="1.5" stroke-miterlimit="10" stroke-linecap="round" stroke-linejoin="round"/>
</svg>