<svg width="24" height="24" viewBox="0 0 24 24" fill="none" xmlns="http://www.w3.org/2000/svg">
<g id="image-upload">
<path id="Vector" d="M2.87778 9.16356C2.87778 8.74935 2.54199 8.41356 2.12778 8.41356C1.71356 8.41356 1.37778 8.74935 1.37778 9.16356H2.87778ZM22.6218 10.816C22.6218 10.4018 22.286 10.066 21.8718 10.066C21.4576 10.066 21.1218 10.4018 21.1218 10.816H22.6218ZM21.3543 17.1396C21.6549 17.4246 22.1296 17.4119 22.4146 17.1113C22.6995 16.8107 22.6869 16.336 22.3863 16.051L21.3543 17.1396ZM17.3166 12.2784L16.8006 12.8227L17.3166 12.2784ZM13.3686 12.1209L13.8396 12.7046L13.3686 12.1209ZM9.3987 15.3246L8.92769 14.7409L9.3987 15.3246ZM5.87415 15.5017L5.46402 16.1296L5.87415 15.5017ZM3.03427 13.6468L3.4444 13.0189H3.4444L3.03427 13.6468ZM2.12795 11.9722L2.87795 11.9723L2.12795 11.9722ZM2.12822 5.96912L1.37822 5.96909L2.12822 5.96912ZM13.4955 2.7193C13.9097 2.7193 14.2455 2.38351 14.2455 1.9693C14.2455 1.55509 13.9097 1.2193 13.4955 1.2193V2.7193ZM21.3449 5.07254C21.6396 5.36355 22.1145 5.3605 22.4055 5.06573C22.6965 4.77097 22.6935 4.2961 22.3987 4.0051L21.3449 5.07254ZM19.2691 1.9693L19.796 1.43558C19.5062 1.1495 19.0411 1.1469 18.7482 1.42971L19.2691 1.9693ZM16.0865 3.99923C15.7885 4.28692 15.7802 4.76172 16.0679 5.05973C16.3556 5.35773 16.8304 5.36609 17.1284 5.0784L16.0865 3.99923ZM18.5197 7.97817C18.5198 8.39238 18.8556 8.72813 19.2698 8.72809C19.684 8.72804 20.0198 8.39222 20.0197 7.97801L18.5197 7.97817ZM17.8718 21.28H6.12778V22.78H17.8718V21.28ZM2.87778 18.03V9.16356H1.37778V18.03H2.87778ZM21.1218 10.816V18.03H22.6218V10.816H21.1218ZM6.12778 21.28C4.33285 21.28 2.87778 19.8249 2.87778 18.03H1.37778C1.37778 20.6533 3.50442 22.78 6.12778 22.78V21.28ZM17.8718 22.78C20.4951 22.78 22.6218 20.6533 22.6218 18.03H21.1218C21.1218 19.8249 19.6667 21.28 17.8718 21.28V22.78ZM22.3863 16.051L17.8325 11.7341L16.8006 12.8227L21.3543 17.1396L22.3863 16.051ZM12.8976 11.5373L8.92769 14.7409L9.8697 15.9082L13.8396 12.7046L12.8976 11.5373ZM6.28428 14.8737L3.4444 13.0189L2.62414 14.2747L5.46402 16.1296L6.28428 14.8737ZM2.87795 11.9723L2.87822 5.96915L1.37822 5.96909L1.37795 11.9722L2.87795 11.9723ZM6.12822 2.7193H13.4955V1.2193H6.12822V2.7193ZM2.87822 5.96915C2.8783 4.17428 4.33335 2.7193 6.12822 2.7193V1.2193C3.50495 1.2193 1.37833 3.34582 1.37822 5.96909L2.87822 5.96915ZM3.4444 13.0189C3.09098 12.788 2.87794 12.3944 2.87795 11.9723L1.37795 11.9722C1.37791 12.9009 1.8466 13.7669 2.62414 14.2747L3.4444 13.0189ZM8.92769 14.7409C8.16852 15.3536 7.10104 15.4072 6.28428 14.8737L5.46402 16.1296C6.82528 17.0187 8.60441 16.9293 9.8697 15.9082L8.92769 14.7409ZM17.8325 11.7341C16.4691 10.4416 14.3596 10.3574 12.8976 11.5373L13.8396 12.7046C14.7168 11.9967 15.9825 12.0472 16.8006 12.8227L17.8325 11.7341ZM8.24377 8.78726C8.24377 9.41285 7.73662 9.91999 7.11103 9.91999V11.42C8.56505 11.42 9.74377 10.2413 9.74377 8.78726H8.24377ZM7.11103 9.91999C6.48543 9.91999 5.97829 9.41285 5.97829 8.78726H4.47829C4.47829 10.2413 5.65701 11.42 7.11103 11.42V9.91999ZM5.97829 8.78726C5.97829 8.16166 6.48543 7.65452 7.11103 7.65452V6.15452C5.65701 6.15452 4.47829 7.33324 4.47829 8.78726H5.97829ZM7.11103 7.65452C7.73662 7.65452 8.24377 8.16166 8.24377 8.78726H9.74377C9.74377 7.33323 8.56505 6.15452 7.11103 6.15452V7.65452ZM22.3987 4.0051L19.796 1.43558L18.7422 2.50302L21.3449 5.07254L22.3987 4.0051ZM18.7482 1.42971L16.0865 3.99923L17.1284 5.0784L19.79 2.50888L18.7482 1.42971ZM18.5191 1.96938L18.5197 7.97817L20.0197 7.97801L20.0191 1.96922L18.5191 1.96938Z" fill="white"/>
</g>
</svg>
