<svg width="26" height="26" viewBox="0 0 26 26" fill="none" xmlns="http://www.w3.org/2000/svg">
<path d="M13.0001 14.0833V7.58329M13.5417 17.875C13.5417 18.1741 13.2992 18.4166 13.0001 18.4166C12.7009 18.4166 12.4584 18.1741 12.4584 17.875M13.5417 17.875C13.5417 17.5758 13.2992 17.3333 13.0001 17.3333C12.7009 17.3333 12.4584 17.5758 12.4584 17.875M13.5417 17.875H12.4584M23.8334 13C23.8334 18.983 18.9832 23.8333 13.0001 23.8333C7.017 23.8333 2.16675 18.983 2.16675 13C2.16675 7.01687 7.017 2.16663 13.0001 2.16663C18.9832 2.16663 23.8334 7.01687 23.8334 13Z" stroke="#B42318" stroke-width="1.3" stroke-linecap="round" stroke-linejoin="round"/>
</svg>
