<svg width="25" height="25" viewBox="0 0 25 25" fill="none" xmlns="http://www.w3.org/2000/svg">
<path fill-rule="evenodd" clip-rule="evenodd" d="M11.5002 1.8125C6.14999 1.8125 1.81274 6.14974 1.81274 11.5C1.81274 16.8503 6.14999 21.1875 11.5002 21.1875C14.1752 21.1875 16.598 20.1024 18.3503 18.3501C20.1027 16.5978 21.1877 14.1749 21.1877 11.5C21.1877 6.14974 16.8505 1.8125 11.5002 1.8125ZM19.9864 19.0139C19.7179 18.7454 19.2826 18.7454 19.0141 19.0139C18.7456 19.2823 18.7456 19.7177 19.0141 19.9861L21.0141 21.9861C21.2826 22.2546 21.7179 22.2546 21.9864 21.9861C22.2549 21.7177 22.2549 21.2823 21.9864 21.0139L19.9864 19.0139Z" fill="#585858"/>
</svg>
