<svg xmlns="http://www.w3.org/2000/svg" width="24" height="24" viewBox="0 0 24 24" fill="none">
    <path d="M2.5 5C2.77614 5 3 4.77614 3 4.5C3 4.22386 2.77614 4 2.5 4M2.5 5C2.22386 5 2 4.77614 2 4.5C2 4.22386 2.22386 4 2.5 4M2.5 5V4M7.5 4.5H22M2.5 12.5C2.77614 12.5 3 12.2761 3 12C3 11.7239 2.77614 11.5 2.5 11.5M2.5 12.5C2.22386 12.5 2 12.2761 2 12C2 11.7239 2.22386 11.5 2.5 11.5M2.5 12.5V11.5M7.5 12H22M2.5 20C2.77614 20 3 19.7761 3 19.5C3 19.2239 2.77614 19 2.5 19M2.5 20C2.22386 20 2 19.7761 2 19.5C2 19.2239 2.22386 19 2.5 19M2.5 20V19M7.5 19.5H22" stroke="#585858" stroke-width="1.5" stroke-miterlimit="10" stroke-linecap="round"/>
</svg>