<svg width="24" height="24" viewBox="0 0 24 24" fill="none" xmlns="http://www.w3.org/2000/svg">
<g id="shopping-cart">
<path id="Vector" d="M7.81829 11.5689H18.1986C20.0219 11.5689 21.5 10.0908 21.5 8.26749C21.5 6.44416 20.0219 4.96605 18.1986 4.96605H7.81828C5.99495 4.96605 4.51685 6.44416 4.51685 8.26749C4.51685 10.0908 5.99495 11.5689 7.81829 11.5689ZM7.81829 11.5689L7.06762 11.5922C4.74431 11.9471 5.00279 15.3979 7.35269 15.3979H20.9127M2.5 2.00012C3.76167 3.85359 5.75604 4.96283 7.81828 4.96283M10.9079 20.2222C10.9079 21.204 10.1175 21.9999 9.14254 21.9999C8.16757 21.9999 7.3772 21.204 7.3772 20.2222C7.3772 19.2404 8.16757 18.4445 9.14254 18.4445C10.1175 18.4445 10.9079 19.2404 10.9079 20.2222ZM19.4825 20.2222C19.4825 21.204 18.6921 21.9999 17.7171 21.9999C16.7422 21.9999 15.9518 21.204 15.9518 20.2222C15.9518 19.2404 16.7422 18.4445 17.7171 18.4445C18.6921 18.4445 19.4825 19.2404 19.4825 20.2222Z" stroke="white" stroke-width="1.5" stroke-linecap="round" stroke-linejoin="round"/>
</g>
</svg>
