<svg width="24" height="24" viewBox="0 0 24 24" fill="none" xmlns="http://www.w3.org/2000/svg">
<g id="gear">
<path id="Vector" d="M22.5922 13.4368C23.1301 12.5062 23.1308 11.3594 22.5941 10.4282L22.5173 10.295C22.1678 9.6886 21.5914 9.24584 20.9154 9.06431C19.5086 8.68651 18.6738 7.23964 19.0516 5.83284C19.2333 5.15636 19.1384 4.43539 18.7879 3.82895L18.5989 3.50193C18.0617 2.5725 17.0697 2.00006 15.9961 2.00006H15.8428C15.1437 2.00006 14.4732 2.27779 13.9789 2.77214C12.9494 3.80159 11.2804 3.80159 10.2509 2.77214C9.75656 2.27779 9.08607 2.00006 8.38694 2.00006H8.00787C6.93243 2.00006 5.9388 2.57422 5.40178 3.50598L5.32418 3.64063C4.9756 4.24542 4.88203 4.96592 5.06308 5.6401C5.44004 7.04379 4.60622 8.49155 3.20129 8.86388C2.52445 9.04325 1.9473 9.48555 1.59812 10.0925L1.40331 10.4311C0.86857 11.3605 0.870229 12.5046 1.40766 13.4325L1.48239 13.5615C1.83253 14.166 2.40885 14.6074 3.08353 14.7886C4.49033 15.1664 5.32673 16.6137 4.94893 18.0205C4.76726 18.6969 4.86215 19.4179 5.21266 20.0244L5.40167 20.3514C5.93886 21.2808 6.9309 21.8532 8.0044 21.8532H8.15772C8.85685 21.8532 9.52734 21.5755 10.0217 21.0812C11.0511 20.0517 12.7202 20.0517 13.7496 21.0812C14.244 21.5755 14.9145 21.8532 15.6136 21.8532H15.9936C17.0685 21.8532 18.0616 21.2794 18.5983 20.3481L18.6768 20.212C19.0251 19.6077 19.1188 18.8897 18.9373 18.2162C18.5594 16.8142 19.3977 15.3696 20.8 14.993C21.4748 14.8117 22.0532 14.3694 22.4028 13.7645L22.5922 13.4368ZM12.0003 15.435C10.0646 15.435 8.49827 13.8559 8.49827 11.933C8.49827 9.99737 10.0646 8.43102 12.0003 8.43102C13.9359 8.43102 15.5023 9.99737 15.5023 11.933C15.5023 13.8559 13.9359 15.435 12.0003 15.435Z" stroke="white" stroke-width="1.5" stroke-miterlimit="10"/>
</g>
</svg>
