<svg width="24" height="24" viewBox="0 0 24 24" fill="none" xmlns="http://www.w3.org/2000/svg">
<g id="megaphone-02">
<g id="Group">
<g id="Group_2">
<path id="Vector" d="M20.957 17.4205L6.34177 15.3333L5.40121 12.7492L15.2778 1.75835" stroke="white" stroke-width="1.5" stroke-miterlimit="10"/>
<path id="Vector_2" d="M6.38624 15.4555L5.36018 12.6364C5.07685 11.8579 4.21608 11.4566 3.43762 11.7399C2.65915 12.0232 2.25777 12.884 2.54111 13.6625L3.56717 16.4815C3.85051 17.26 4.71127 17.6614 5.48974 17.3781C6.2682 17.0947 6.66958 16.234 6.38624 15.4555Z" stroke="white" stroke-width="1.5" stroke-miterlimit="10"/>
<path id="Vector_3" d="M21.3013 17.4016C22.3497 17.02 21.9086 13.1641 20.3163 8.78908C18.7239 4.4141 16.5832 1.17679 15.5349 1.55836C14.4865 1.93992 14.9276 5.79586 16.5199 10.1708C18.1123 14.5458 20.253 17.7831 21.3013 17.4016Z" stroke="white" stroke-width="1.5" stroke-miterlimit="10"/>
</g>
<path id="Vector_4" d="M10.4608 15.9199L11.15 17.8134C11.4645 18.6775 12.4199 19.123 13.284 18.8085V18.8085C14.1481 18.494 14.5937 17.5385 14.2792 16.6744L14.2193 16.51" stroke="white" stroke-width="1.5" stroke-miterlimit="10"/>
</g>
</g>
</svg>
