<svg width="24" height="24" viewBox="0 0 24 24" fill="none" xmlns="http://www.w3.org/2000/svg">
<g id="staric">
<path id="Icon" d="M17.7276 16.1234C17.5277 16.4891 17.0539 16.6007 16.7113 16.3628L12.9978 13.784L13.3854 18.2395C13.4209 18.6484 13.0979 19 12.6866 19H11.3126C10.9014 19 10.5784 18.6485 10.6139 18.2397L11.0016 13.7658L7.28876 16.3597C6.94612 16.5991 6.47106 16.4879 6.27079 16.1215L5.59091 14.8775C5.39622 14.5213 5.54482 14.075 5.91442 13.9059L10.0217 12.0272L5.90735 10.1296C5.54054 9.96043 5.39245 9.51772 5.58388 9.16256L6.26842 7.89256C6.4688 7.52078 6.95086 7.40929 7.29468 7.65521L11.0016 10.3066L10.6129 5.75951C10.578 5.35092 10.9009 5 11.3118 5H12.6877C13.0986 5 13.4215 5.35092 13.3866 5.75951L12.9978 10.3066L16.7048 7.65521C17.0486 7.40929 17.5307 7.52078 17.7311 7.89256L18.4161 9.16351C18.6074 9.51832 18.4598 9.9606 18.0936 10.1301L13.9959 12.0272L18.0865 13.9054C18.4555 14.0748 18.6036 14.5207 18.4091 14.8765L17.7276 16.1234Z" fill="#D92D20"/>
</g>
</svg>
