<svg width="24" height="23" viewBox="0 0 24 23" fill="none" xmlns="http://www.w3.org/2000/svg">
<path id="Vector" d="M9.53135 3.07707C10.2801 0.640915 13.7199 0.640917 14.4686 3.07707L15.3701 6.00999C15.537 6.55305 16.0376 6.92355 16.6044 6.92355H19.8518C22.3238 6.92355 23.3838 10.0698 21.4182 11.5726L18.6405 13.6961C18.2101 14.0252 18.03 14.5884 18.1894 15.1071L19.1972 18.3858C19.9376 20.7948 17.1574 22.7368 15.1598 21.2059L13.5687 19.9867C12.6427 19.277 11.3573 19.277 10.4313 19.9867L8.84019 21.2059C6.84259 22.7368 4.06238 20.7948 4.8028 18.3858L5.81057 15.1071C5.96997 14.5884 5.78989 14.0252 5.35946 13.6961L2.58181 11.5726C0.616143 10.0698 1.67621 6.92355 4.14822 6.92355H7.39556C7.96238 6.92355 8.46297 6.55305 8.62988 6.00999L9.53135 3.07707Z" stroke="#585858" stroke-width="1.5" stroke-miterlimit="10" stroke-linecap="round" stroke-linejoin="round"/>
</svg>
