<svg width="24" height="24" viewBox="0 0 24 24" fill="none" xmlns="http://www.w3.org/2000/svg">
<g id="Frame">
<path id="Vector" d="M18.114 10.7182V10.7182C19.0224 11.2098 19.0228 12.5131 18.1148 13.0053L15.642 14.3455L13.4329 15.5401C12.2457 16.1822 10.8147 16.1822 9.62748 15.5401L7.41843 14.3455L4.9413 13.0029C4.03117 12.5096 4.027 11.2049 4.93397 10.7058V10.7058" stroke="#D92D20" stroke-width="1.5" stroke-miterlimit="10" stroke-linecap="round" stroke-linejoin="round"/>
<path id="Vector_2" d="M18.2933 5.84545C19.1247 6.29556 19.1249 7.48846 18.2938 7.93894L15.642 9.37623L12.0965 11.2936C11.7432 11.4847 11.3173 11.4847 10.9639 11.2936L7.41843 9.37623L4.76664 7.93894C3.9355 7.48846 3.93577 6.29556 4.76711 5.84545L10.9634 2.49059C11.317 2.29913 11.7434 2.29913 12.097 2.49059L18.2933 5.84545Z" stroke="#D92D20" stroke-width="1.5" stroke-miterlimit="10"/>
<path id="Vector_3" d="M18.114 15.5998L18.2927 15.6965C19.1242 16.1465 19.1246 17.3396 18.2933 17.7901L15.642 19.2272L13.4329 20.4218C12.2457 21.0638 10.8147 21.0638 9.62748 20.4218L7.41843 19.2272L4.75098 17.7814C3.92307 17.3327 3.91928 16.1458 4.74431 15.6918L4.93397 15.5874" stroke="#D92D20" stroke-width="1.5" stroke-miterlimit="10" stroke-linecap="round" stroke-linejoin="round"/>
</g>
</svg>
