<svg width="36" height="36" viewBox="0 0 36 36" fill="none" xmlns="http://www.w3.org/2000/svg">
<rect width="36" height="36" rx="7.5" fill="#FEF3F2"/>
<path d="M22.5855 17.0387V17.0387C23.2668 17.4073 23.2671 18.3848 22.5861 18.754L20.7315 19.7591L19.0747 20.6551C18.1843 21.1366 17.1111 21.1366 16.2206 20.6551L14.5638 19.7591L12.706 18.7522C12.0234 18.3822 12.0203 17.4037 12.7005 17.0293V17.0293" stroke="#D92D20" stroke-width="1.125" stroke-miterlimit="10" stroke-linecap="round" stroke-linejoin="round"/>
<path d="M22.72 13.3841C23.3435 13.7217 23.3437 14.6164 22.7204 14.9542L20.7315 16.0322L18.0724 17.4702C17.8074 17.6135 17.488 17.6135 17.223 17.4702L14.5638 16.0322L12.575 14.9542C11.9516 14.6164 11.9518 13.7217 12.5753 13.3841L17.2226 10.868C17.4878 10.7244 17.8076 10.7244 18.0728 10.8679L22.72 13.3841Z" stroke="#D92D20" stroke-width="1.125" stroke-miterlimit="10"/>
<path d="M22.5855 20.6999L22.7195 20.7724C23.3431 21.1099 23.3434 22.0047 22.72 22.3426L20.7315 23.4204L19.0747 24.3163C18.1843 24.7979 17.1111 24.7979 16.2206 24.3163L14.5638 23.4204L12.5633 22.336C11.9423 21.9995 11.9395 21.1093 12.5582 20.7688L12.7005 20.6906" stroke="#D92D20" stroke-width="1.125" stroke-miterlimit="10" stroke-linecap="round" stroke-linejoin="round"/>
</svg>
