<svg width="24" height="24" viewBox="0 0 24 24" fill="none" xmlns="http://www.w3.org/2000/svg">
<g id="users">
<path id="Vector" d="M15.5518 4.19159C16.7243 4.19159 17.6769 5.41972 17.6769 6.93127C17.6769 7.48951 17.5437 8.01339 17.3239 8.44281C16.9441 9.1814 16.2913 9.67094 15.5518 9.67094M19.0291 13.2179C19.6634 12.5784 20.6098 12.5602 21.3006 13.1846C21.8774 13.7075 22.3678 14.3813 22.7108 15.076C23.1508 15.9671 23.0748 17.0352 22.5791 17.8947C21.8241 19.2041 20.6864 20.1208 19.1495 20.3896M12.4318 5.49582C12.4318 6.20814 12.2193 6.87662 11.8687 7.42455C11.263 8.367 10.2217 8.99165 9.04232 8.99165C7.8629 8.99165 6.82162 8.367 6.21597 7.42455C5.86533 6.87662 5.65283 6.20814 5.65283 5.49582C5.65283 3.56709 7.17225 2 9.04232 2C10.9124 2 12.4318 3.56709 12.4318 5.49582ZM9.05242 21.9998C11.3445 21.9998 13.5133 21.3072 15.2023 20.1476C16.8691 19.0032 17.5731 16.7302 16.5245 14.9709C16.1784 14.3903 15.7533 13.8536 15.2895 13.3753C14.3545 12.4109 12.7394 12.2465 11.5069 12.915C10.795 13.2986 9.9662 13.5177 9.06304 13.5177C8.15989 13.5177 7.33111 13.2986 6.61921 12.915C5.38666 12.2465 3.84598 12.4876 2.83657 13.3753C2.20644 13.9296 1.7029 14.6819 1.34065 15.4377C0.595977 16.9914 1.11527 18.815 2.48286 19.8222C4.22163 21.1028 6.67135 21.9998 9.05242 21.9998Z" stroke="white" stroke-width="1.5" stroke-miterlimit="10" stroke-linecap="round" stroke-linejoin="round"/>
</g>
</svg>
