<svg width="24" height="24" viewBox="0 0 24 24" fill="none" xmlns="http://www.w3.org/2000/svg">
<path d="M9.37524 7.9375H13.1252M5.75 4.5H13.25C15.3211 4.5 17 6.17893 17 8.25V15.75C17 17.8211 15.3211 19.5 13.25 19.5H5.75C3.67893 19.5 2 17.8211 2 15.75V8.25C2 6.17893 3.67893 4.5 5.75 4.5ZM19.8855 6.52462L17.3855 8.91837C17.1393 9.15416 17 9.4803 17 9.82124V14.1788C17 14.5197 17.1393 14.8458 17.3855 15.0816L19.8855 17.4754C20.6805 18.2365 22 17.6731 22 16.5725V7.42748C22 6.32689 20.6805 5.76346 19.8855 6.52462Z" stroke="white" stroke-width="1.5" stroke-linecap="round"/>
</svg>
