<svg xmlns="http://www.w3.org/2000/svg" width="24" height="24" viewBox="0 0 24 24" fill="none">
    <path d="M7.26564 3.80825L7.6971 4.42171L7.6971 4.42171L7.26564 3.80825ZM5.93436 3.80825L6.36582 3.19478L5.93436 3.80825ZM14.4656 3.80825L14.0342 3.19478L14.0342 3.19478L14.4656 3.80825ZM13.1344 3.80825L13.5658 3.19478L13.5658 3.19478L13.1344 3.80825ZM10.8656 2.21262L10.4342 2.82609L10.4342 2.82609L10.8656 2.21262ZM9.53436 2.21262L9.1029 1.59915L9.1029 1.59915L9.53436 2.21262ZM4.86564 3.0566L5.2971 2.44313L5.2971 2.44313L4.86564 3.0566ZM15.5344 3.0566L15.9658 3.67007L15.9658 3.67007L15.5344 3.0566ZM20.4 14.4042L20.4 13.6542L20.4 13.6542L20.4 14.4042ZM21 15.0372L21.75 15.0372V15.0372L21 15.0372ZM21 19.4681L20.25 19.4681V19.4681L21 19.4681ZM18.6 22L18.6 21.25L18.6 21.25L18.6 22ZM17.4 21.25C16.9858 21.25 16.65 21.5858 16.65 22C16.65 22.4142 16.9858 22.75 17.4 22.75L17.4 21.25ZM8.85974 13.8048C8.85974 13.3906 8.52396 13.0548 8.10974 13.0548C7.69553 13.0548 7.35974 13.3906 7.35974 13.8048H8.85974ZM12.2961 13.799L13.045 13.8408L13.045 13.8406L12.2961 13.799ZM8.09886 9.96832L8.84885 9.9653L8.84885 9.96413L8.09886 9.96832ZM11.5461 9.9798C11.5461 10.394 11.8819 10.7298 12.2961 10.7298C12.7103 10.7298 13.0461 10.394 13.0461 9.9798H11.5461ZM9.31553 16.3031C9.31553 16.7173 9.65131 17.0531 10.0655 17.0531C10.4797 17.0531 10.8155 16.7173 10.8155 16.3031H9.31553ZM10.8155 15.4129C10.8155 14.9987 10.4797 14.6629 10.0655 14.6629C9.65131 14.6629 9.31553 14.9987 9.31553 15.4129H10.8155ZM9.31553 8.32578C9.31553 8.74 9.65131 9.07578 10.0655 9.07578C10.4797 9.07578 10.8155 8.74 10.8155 8.32578H9.31553ZM10.8155 7.44133C10.8155 7.02711 10.4797 6.69133 10.0655 6.69133C9.65131 6.69133 9.31553 7.02711 9.31553 7.44133H10.8155ZM2.25 4.10995V16.9361H3.75V4.10995H2.25ZM15.1029 2.44313L14.0342 3.19478L14.8971 4.42171L15.9658 3.67007L15.1029 2.44313ZM13.5658 3.19478L11.2971 1.59915L10.4342 2.82609L12.7029 4.42171L13.5658 3.19478ZM9.1029 1.59915L6.83418 3.19478L7.6971 4.42171L9.96582 2.82609L9.1029 1.59915ZM6.36582 3.19478L5.2971 2.44313L4.43418 3.67007L5.5029 4.42171L6.36582 3.19478ZM16.65 12.6878C16.65 15.5674 16.9848 18.4364 17.6469 21.2305L19.1065 20.8846C18.4713 18.2042 18.15 15.4513 18.15 12.6878H16.65ZM6.83418 3.19478C6.68994 3.29623 6.51006 3.29623 6.36582 3.19478L5.5029 4.42171C6.16482 4.88725 7.03518 4.88725 7.6971 4.42171L6.83418 3.19478ZM14.0342 3.19478C13.8899 3.29623 13.7101 3.29623 13.5658 3.19478L12.7029 4.42171C13.3648 4.88725 14.2352 4.88725 14.8971 4.42171L14.0342 3.19478ZM11.2971 1.59915C10.6352 1.13362 9.76482 1.13362 9.1029 1.59915L9.96582 2.82609C10.1101 2.72464 10.2899 2.72464 10.4342 2.82609L11.2971 1.59915ZM3.75 4.10995C3.75 3.88259 3.8646 3.72474 4.00251 3.64687C4.13676 3.57107 4.29003 3.56868 4.43418 3.67007L5.2971 2.44313C3.94105 1.4894 2.25 2.56806 2.25 4.10995H3.75ZM15.9658 3.67007C16.11 3.56868 16.2632 3.57107 16.3975 3.64687C16.5354 3.72474 16.65 3.88259 16.65 4.10995H18.15C18.15 2.56806 16.459 1.4894 15.1029 2.44313L15.9658 3.67007ZM17.6469 21.2305C17.6492 21.2401 17.6486 21.2465 17.6477 21.251C17.6466 21.2563 17.6444 21.2602 17.643 21.2621C17.6416 21.264 17.643 21.2612 17.6503 21.2573C17.6541 21.2553 17.6589 21.2534 17.6645 21.2519C17.6702 21.2505 17.6754 21.25 17.6792 21.25V22.75C18.6819 22.75 19.3195 21.7837 19.1065 20.8846L17.6469 21.2305ZM2.25 16.9361C2.25 20.1087 4.69751 22.75 7.8 22.75V21.25C5.60056 21.25 3.75 19.3569 3.75 16.9361H2.25ZM17.4 15.1542L20.4 15.1542L20.4 13.6542L17.4 13.6542L17.4 15.1542ZM20.25 15.0372V19.4681H21.75V15.0372H20.25ZM18.6 21.25L17.4 21.25L17.4 22.75L18.6 22.75L18.6 21.25ZM20.25 19.4681C20.25 20.4905 19.474 21.25 18.6 21.25L18.6 22.75C20.377 22.75 21.75 21.2423 21.75 19.4681L20.25 19.4681ZM20.4 15.1542C20.3452 15.1542 20.3026 15.1295 20.2799 15.1055C20.2579 15.0823 20.25 15.0565 20.25 15.0372L21.75 15.0372C21.75 14.3117 21.1829 13.6542 20.4 13.6542L20.4 15.1542ZM7.35974 13.8048C7.35974 14.5033 7.75583 15.0993 8.23116 15.4925C8.71531 15.8931 9.36981 16.1629 10.0641 16.1629V14.6629C9.7513 14.6629 9.42861 14.5364 9.18736 14.3368C8.93728 14.1299 8.85974 13.9218 8.85974 13.8048H7.35974ZM10.0641 16.1629C11.4504 16.1629 12.9581 15.3983 13.045 13.8408L11.5473 13.7573C11.5253 14.1525 11.084 14.6629 10.0641 14.6629V16.1629ZM13.045 13.8406C13.0704 13.3834 13.0106 12.9685 12.8506 12.6016C12.6885 12.2299 12.4417 11.9493 12.1572 11.7385C11.6263 11.3453 10.9379 11.1858 10.4345 11.0675C9.85409 10.9309 9.45891 10.837 9.18225 10.6626C9.06402 10.588 8.99194 10.5115 8.94465 10.4264C8.89698 10.3406 8.8498 10.2015 8.84885 9.9653L7.34886 9.97133C7.35064 10.4129 7.44177 10.8099 7.63341 11.1548C7.82544 11.5005 8.0937 11.7495 8.38223 11.9314C8.9191 12.2699 9.60319 12.4129 10.0911 12.5276C10.6561 12.6605 11.0252 12.7667 11.2643 12.9438C11.3648 13.0183 11.4311 13.099 11.4757 13.2012C11.5223 13.3081 11.5627 13.4796 11.5473 13.7575L13.045 13.8406ZM8.84885 9.96413C8.84731 9.68858 8.94775 9.49253 9.11217 9.35335C9.28806 9.20446 9.5942 9.07576 10.0587 9.07576V7.57576C9.32548 7.57576 8.64899 7.78016 8.14303 8.20847C7.62559 8.64648 7.34496 9.27171 7.34887 9.9725L8.84885 9.96413ZM10.0587 9.07576C10.445 9.07576 10.8603 9.17937 11.1539 9.36261C11.4284 9.53391 11.5461 9.73282 11.5461 9.9798H13.0461C13.0461 9.08963 12.5433 8.46151 11.9481 8.09008C11.372 7.73059 10.6686 7.57576 10.0587 7.57576V9.07576ZM10.8155 16.3031V15.4129H9.31553V16.3031H10.8155ZM10.8155 8.32578V7.44133H9.31553V8.32578H10.8155ZM18.15 12.6878V4.10995H16.65V12.6878H18.15ZM7.8 22.75H17.6792V21.25H7.8V22.75Z" fill="#585858"/>
</svg>