<svg width="24" height="25" viewBox="0 0 24 25" fill="none" xmlns="http://www.w3.org/2000/svg">
<g id="calendar-minus">
<path id="Vector" d="M9.05615 1.875C9.05615 1.46079 8.72037 1.125 8.30615 1.125C7.89194 1.125 7.55615 1.46079 7.55615 1.875H9.05615ZM7.55615 4.375C7.55615 4.78921 7.89194 5.125 8.30615 5.125C8.72037 5.125 9.05615 4.78921 9.05615 4.375H7.55615ZM16.4438 1.875C16.4438 1.46079 16.1081 1.125 15.6938 1.125C15.2796 1.125 14.9438 1.46079 14.9438 1.875H16.4438ZM14.9438 4.375C14.9438 4.78921 15.2796 5.125 15.6938 5.125C16.1081 5.125 16.4438 4.78921 16.4438 4.375H14.9438ZM2.10193 9.30981C1.68772 9.30981 1.35193 9.6456 1.35193 10.0598C1.35193 10.474 1.68772 10.8098 2.10193 10.8098V9.30981ZM21.9115 10.8098C22.3257 10.8098 22.6615 10.474 22.6615 10.0598C22.6615 9.6456 22.3257 9.30981 21.9115 9.30981V10.8098ZM8.29578 15.5037C7.88156 15.5037 7.54578 15.8394 7.54578 16.2537C7.54578 16.6679 7.88156 17.0037 8.29578 17.0037V15.5037ZM15.6615 17.0037C16.0757 17.0037 16.4115 16.6679 16.4115 16.2537C16.4115 15.8394 16.0757 15.5037 15.6615 15.5037V17.0037ZM6 3.875H18V2.375H6V3.875ZM21.25 7.125V19.125H22.75V7.125H21.25ZM18 22.375H6V23.875H18V22.375ZM2.75 19.125V7.125H1.25V19.125H2.75ZM6 22.375C4.20507 22.375 2.75 20.9199 2.75 19.125H1.25C1.25 21.7484 3.37665 23.875 6 23.875V22.375ZM21.25 19.125C21.25 20.9199 19.7949 22.375 18 22.375V23.875C20.6234 23.875 22.75 21.7484 22.75 19.125H21.25ZM18 3.875C19.7949 3.875 21.25 5.33007 21.25 7.125H22.75C22.75 4.50165 20.6234 2.375 18 2.375V3.875ZM6 2.375C3.37665 2.375 1.25 4.50165 1.25 7.125H2.75C2.75 5.33007 4.20507 3.875 6 3.875V2.375ZM7.55615 1.875V4.375H9.05615V1.875H7.55615ZM14.9438 1.875V4.375H16.4438V1.875H14.9438ZM2.10193 10.8098H21.9115V9.30981H2.10193V10.8098ZM8.29578 17.0037H15.6615V15.5037H8.29578V17.0037Z" fill="white"/>
</g>
</svg>
